<svg width="528" height="82" viewBox="0 0 528 82" fill="none" xmlns="http://www.w3.org/2000/svg">
<path d="M44.7793 12.4912V17H42.1426V4.20312H47.1348C48.0957 4.20312 48.9395 4.37891 49.666 4.73047C50.3984 5.08203 50.9609 5.58301 51.3535 6.2334C51.7461 6.87793 51.9424 7.61328 51.9424 8.43945C51.9424 9.69336 51.5117 10.6836 50.6504 11.4102C49.7949 12.1309 48.6084 12.4912 47.0908 12.4912H44.7793ZM44.7793 10.3555H47.1348C47.832 10.3555 48.3623 10.1914 48.7256 9.86328C49.0947 9.53516 49.2793 9.06641 49.2793 8.45703C49.2793 7.83008 49.0947 7.32324 48.7256 6.93652C48.3564 6.5498 47.8467 6.35059 47.1963 6.33887H44.7793V10.3555ZM53.0762 12.1572C53.0762 11.2139 53.2578 10.373 53.6211 9.63477C53.9844 8.89648 54.5059 8.3252 55.1855 7.9209C55.8711 7.5166 56.665 7.31445 57.5674 7.31445C58.8506 7.31445 59.8965 7.70703 60.7051 8.49219C61.5195 9.27734 61.9736 10.3438 62.0674 11.6914L62.085 12.3418C62.085 13.8008 61.6777 14.9727 60.8633 15.8574C60.0488 16.7363 58.9561 17.1758 57.585 17.1758C56.2139 17.1758 55.1182 16.7363 54.2979 15.8574C53.4834 14.9785 53.0762 13.7832 53.0762 12.2715V12.1572ZM55.6162 12.3418C55.6162 13.2441 55.7861 13.9355 56.126 14.416C56.4658 14.8906 56.9521 15.1279 57.585 15.1279C58.2002 15.1279 58.6807 14.8936 59.0264 14.4248C59.3721 13.9502 59.5449 13.1943 59.5449 12.1572C59.5449 11.2725 59.3721 10.5869 59.0264 10.1006C58.6807 9.61426 58.1943 9.37109 57.5674 9.37109C56.9463 9.37109 56.4658 9.61426 56.126 10.1006C55.7861 10.5811 55.6162 11.3281 55.6162 12.3418ZM68.7998 14.3721C68.7998 14.0615 68.6445 13.8184 68.334 13.6426C68.0293 13.4609 67.5371 13.2998 66.8574 13.1592C64.5957 12.6846 63.4648 11.7236 63.4648 10.2764C63.4648 9.43262 63.8135 8.72949 64.5107 8.16699C65.2139 7.59863 66.1309 7.31445 67.2617 7.31445C68.4688 7.31445 69.4326 7.59863 70.1533 8.16699C70.8799 8.73535 71.2432 9.47363 71.2432 10.3818H68.7031C68.7031 10.0186 68.5859 9.71973 68.3516 9.48535C68.1172 9.24512 67.751 9.125 67.2529 9.125C66.8252 9.125 66.4941 9.22168 66.2598 9.41504C66.0254 9.6084 65.9082 9.85449 65.9082 10.1533C65.9082 10.4346 66.04 10.6631 66.3037 10.8389C66.5732 11.0088 67.0244 11.1582 67.6572 11.2871C68.29 11.4102 68.8232 11.5508 69.2568 11.709C70.5986 12.2012 71.2695 13.0537 71.2695 14.2666C71.2695 15.1338 70.8975 15.8369 70.1533 16.376C69.4092 16.9092 68.4482 17.1758 67.2705 17.1758C66.4736 17.1758 65.7646 17.0352 65.1436 16.7539C64.5283 16.4668 64.0449 16.0771 63.6934 15.585C63.3418 15.0869 63.166 14.5508 63.166 13.9766H65.5742C65.5977 14.4277 65.7646 14.7734 66.0752 15.0137C66.3857 15.2539 66.8018 15.374 67.3232 15.374C67.8096 15.374 68.1758 15.2832 68.4219 15.1016C68.6738 14.9141 68.7998 14.6709 68.7998 14.3721ZM75.5938 17H73.0449V7.49023H75.5938V17ZM72.8955 5.0293C72.8955 4.64844 73.0215 4.33496 73.2734 4.08887C73.5312 3.84277 73.8799 3.71973 74.3193 3.71973C74.7529 3.71973 75.0986 3.84277 75.3564 4.08887C75.6143 4.33496 75.7432 4.64844 75.7432 5.0293C75.7432 5.41602 75.6113 5.73242 75.3477 5.97852C75.0898 6.22461 74.7471 6.34766 74.3193 6.34766C73.8916 6.34766 73.5459 6.22461 73.2822 5.97852C73.0244 5.73242 72.8955 5.41602 72.8955 5.0293ZM80.7354 5.15234V7.49023H82.3613V9.35352H80.7354V14.0996C80.7354 14.4512 80.8027 14.7031 80.9375 14.8555C81.0723 15.0078 81.3301 15.084 81.7109 15.084C81.9922 15.084 82.2412 15.0635 82.458 15.0225V16.9473C81.96 17.0996 81.4473 17.1758 80.9199 17.1758C79.1387 17.1758 78.2305 16.2764 78.1953 14.4775V9.35352H76.8066V7.49023H78.1953V5.15234H80.7354ZM86.457 17H83.9082V7.49023H86.457V17ZM83.7588 5.0293C83.7588 4.64844 83.8848 4.33496 84.1367 4.08887C84.3945 3.84277 84.7432 3.71973 85.1826 3.71973C85.6162 3.71973 85.9619 3.84277 86.2197 4.08887C86.4775 4.33496 86.6064 4.64844 86.6064 5.0293C86.6064 5.41602 86.4746 5.73242 86.2109 5.97852C85.9531 6.22461 85.6104 6.34766 85.1826 6.34766C84.7549 6.34766 84.4092 6.22461 84.1455 5.97852C83.8877 5.73242 83.7588 5.41602 83.7588 5.0293ZM92.1172 13.8975L93.8838 7.49023H96.5381L93.3301 17H90.9043L87.6963 7.49023H90.3506L92.1172 13.8975ZM101.917 17.1758C100.522 17.1758 99.3857 16.748 98.5068 15.8926C97.6338 15.0371 97.1973 13.8975 97.1973 12.4736V12.2275C97.1973 11.2725 97.3818 10.4199 97.751 9.66992C98.1201 8.91406 98.6416 8.33398 99.3154 7.92969C99.9951 7.51953 100.769 7.31445 101.636 7.31445C102.937 7.31445 103.959 7.72461 104.703 8.54492C105.453 9.36523 105.828 10.5283 105.828 12.0342V13.0713H99.7725C99.8545 13.6924 100.101 14.1904 100.511 14.5654C100.927 14.9404 101.451 15.1279 102.084 15.1279C103.062 15.1279 103.827 14.7734 104.378 14.0645L105.626 15.4619C105.245 16.001 104.729 16.4229 104.079 16.7275C103.429 17.0264 102.708 17.1758 101.917 17.1758ZM101.627 9.37109C101.123 9.37109 100.713 9.54102 100.396 9.88086C100.086 10.2207 99.8867 10.707 99.7988 11.3398H103.332V11.1377C103.32 10.5752 103.168 10.1416 102.875 9.83691C102.582 9.52637 102.166 9.37109 101.627 9.37109Z" fill="#629B68"/>
<path d="M43.8369 33H42.1143V23.0469H43.8369V33ZM47.3643 25.6035L47.4121 26.376C47.9316 25.7699 48.6426 25.4668 49.5449 25.4668C50.5339 25.4668 51.2106 25.8451 51.5752 26.6016C52.113 25.8451 52.8695 25.4668 53.8447 25.4668C54.6605 25.4668 55.2666 25.6924 55.6631 26.1436C56.0641 26.5947 56.2692 27.2601 56.2783 28.1396V33H54.6172V28.1875C54.6172 27.7181 54.5146 27.374 54.3096 27.1553C54.1045 26.9365 53.765 26.8271 53.291 26.8271C52.9128 26.8271 52.6029 26.9297 52.3613 27.1348C52.1243 27.3353 51.958 27.5996 51.8623 27.9277L51.8691 33H50.208V28.1328C50.1852 27.2624 49.7409 26.8271 48.875 26.8271C48.2096 26.8271 47.738 27.0983 47.46 27.6406V33H45.7988V25.6035H47.3643ZM64.4609 29.377C64.4609 30.5208 64.2012 31.4346 63.6816 32.1182C63.1621 32.7972 62.4648 33.1367 61.5898 33.1367C60.7786 33.1367 60.1292 32.8701 59.6416 32.3369V35.8438H57.9805V25.6035H59.5117L59.5801 26.3555C60.0677 25.763 60.7308 25.4668 61.5693 25.4668C62.4717 25.4668 63.1781 25.804 63.6885 26.4785C64.2035 27.1484 64.4609 28.0804 64.4609 29.2744V29.377ZM62.8066 29.2334C62.8066 28.4951 62.6585 27.9095 62.3623 27.4766C62.0706 27.0436 61.6514 26.8271 61.1045 26.8271C60.4255 26.8271 59.9378 27.1074 59.6416 27.668V30.9492C59.9424 31.5234 60.4346 31.8105 61.1182 31.8105C61.6468 31.8105 62.0592 31.5986 62.3555 31.1748C62.6562 30.7464 62.8066 30.0993 62.8066 29.2334ZM69.7451 27.1211C69.5264 27.0846 69.3008 27.0664 69.0684 27.0664C68.3073 27.0664 67.7946 27.3581 67.5303 27.9414V33H65.8691V25.6035H67.4551L67.4961 26.4307C67.8971 25.7881 68.4531 25.4668 69.1641 25.4668C69.401 25.4668 69.597 25.4987 69.752 25.5625L69.7451 27.1211ZM70.2373 29.2334C70.2373 28.5088 70.3809 27.8571 70.668 27.2783C70.9551 26.695 71.3584 26.2484 71.8779 25.9385C72.3975 25.624 72.9945 25.4668 73.6689 25.4668C74.667 25.4668 75.4759 25.7881 76.0957 26.4307C76.7201 27.0732 77.0573 27.9255 77.1074 28.9873L77.1143 29.377C77.1143 30.1061 76.973 30.7578 76.6904 31.332C76.4124 31.9062 76.0114 32.3506 75.4873 32.665C74.9678 32.9795 74.3662 33.1367 73.6826 33.1367C72.639 33.1367 71.8027 32.7904 71.1738 32.0977C70.5495 31.4004 70.2373 30.473 70.2373 29.3154V29.2334ZM71.8984 29.377C71.8984 30.138 72.0557 30.735 72.3701 31.168C72.6846 31.5964 73.1221 31.8105 73.6826 31.8105C74.2432 31.8105 74.6784 31.5918 74.9883 31.1543C75.3027 30.7168 75.46 30.0765 75.46 29.2334C75.46 28.486 75.2982 27.8936 74.9746 27.4561C74.6556 27.0186 74.2204 26.7998 73.6689 26.7998C73.1266 26.7998 72.696 27.0163 72.377 27.4492C72.0579 27.8776 71.8984 28.5202 71.8984 29.377ZM81.0176 30.8945L82.583 25.6035H84.2988L81.7354 33H80.293L77.709 25.6035H79.4316L81.0176 30.8945ZM88.5029 33.1367C87.4502 33.1367 86.5957 32.8063 85.9395 32.1455C85.2878 31.4801 84.9619 30.596 84.9619 29.4932V29.2881C84.9619 28.5498 85.1032 27.8913 85.3857 27.3125C85.6729 26.7292 86.0739 26.2757 86.5889 25.9521C87.1038 25.6286 87.6781 25.4668 88.3115 25.4668C89.3187 25.4668 90.0957 25.7881 90.6426 26.4307C91.194 27.0732 91.4697 27.9824 91.4697 29.1582V29.8281H86.6367C86.6868 30.4388 86.8896 30.9219 87.2451 31.2773C87.6051 31.6328 88.0563 31.8105 88.5986 31.8105C89.3597 31.8105 89.9795 31.5029 90.458 30.8877L91.3535 31.7422C91.0573 32.1842 90.6608 32.5283 90.1641 32.7744C89.6719 33.016 89.1182 33.1367 88.5029 33.1367ZM88.3047 26.7998C87.849 26.7998 87.4798 26.9593 87.1973 27.2783C86.9193 27.5973 86.7415 28.0417 86.6641 28.6113H89.8291V28.4883C89.7926 27.9323 89.6445 27.513 89.3848 27.2305C89.125 26.9434 88.765 26.7998 88.3047 26.7998ZM94.3271 25.6035L94.375 26.376C94.8945 25.7699 95.6055 25.4668 96.5078 25.4668C97.4967 25.4668 98.1735 25.8451 98.5381 26.6016C99.0758 25.8451 99.8324 25.4668 100.808 25.4668C101.623 25.4668 102.229 25.6924 102.626 26.1436C103.027 26.5947 103.232 27.2601 103.241 28.1396V33H101.58V28.1875C101.58 27.7181 101.478 27.374 101.272 27.1553C101.067 26.9365 100.728 26.8271 100.254 26.8271C99.8757 26.8271 99.5658 26.9297 99.3242 27.1348C99.0872 27.3353 98.9209 27.5996 98.8252 27.9277L98.832 33H97.1709V28.1328C97.1481 27.2624 96.7038 26.8271 95.8379 26.8271C95.1725 26.8271 94.7008 27.0983 94.4229 27.6406V33H92.7617V25.6035H94.3271ZM108.204 33.1367C107.151 33.1367 106.297 32.8063 105.641 32.1455C104.989 31.4801 104.663 30.596 104.663 29.4932V29.2881C104.663 28.5498 104.804 27.8913 105.087 27.3125C105.374 26.7292 105.775 26.2757 106.29 25.9521C106.805 25.6286 107.379 25.4668 108.013 25.4668C109.02 25.4668 109.797 25.7881 110.344 26.4307C110.895 27.0732 111.171 27.9824 111.171 29.1582V29.8281H106.338C106.388 30.4388 106.591 30.9219 106.946 31.2773C107.306 31.6328 107.757 31.8105 108.3 31.8105C109.061 31.8105 109.681 31.5029 110.159 30.8877L111.055 31.7422C110.758 32.1842 110.362 32.5283 109.865 32.7744C109.373 33.016 108.819 33.1367 108.204 33.1367ZM108.006 26.7998C107.55 26.7998 107.181 26.9593 106.898 27.2783C106.62 27.5973 106.443 28.0417 106.365 28.6113H109.53V28.4883C109.494 27.9323 109.346 27.513 109.086 27.2305C108.826 26.9434 108.466 26.7998 108.006 26.7998ZM114.008 25.6035L114.056 26.458C114.603 25.7972 115.32 25.4668 116.209 25.4668C117.749 25.4668 118.533 26.3486 118.561 28.1123V33H116.899V28.208C116.899 27.7386 116.797 27.3923 116.592 27.1689C116.391 26.9411 116.061 26.8271 115.601 26.8271C114.931 26.8271 114.432 27.1302 114.104 27.7363V33H112.442V25.6035H114.008ZM122.341 23.8057V25.6035H123.646V26.834H122.341V30.9629C122.341 31.2454 122.396 31.4505 122.505 31.5781C122.619 31.7012 122.819 31.7627 123.106 31.7627C123.298 31.7627 123.492 31.7399 123.688 31.6943V32.9795C123.309 33.0843 122.945 33.1367 122.594 33.1367C121.318 33.1367 120.68 32.4326 120.68 31.0244V26.834H119.463V25.6035H120.68V23.8057H122.341ZM128.097 29.2334C128.097 28.5088 128.24 27.8571 128.527 27.2783C128.814 26.695 129.218 26.2484 129.737 25.9385C130.257 25.624 130.854 25.4668 131.528 25.4668C132.526 25.4668 133.335 25.7881 133.955 26.4307C134.579 27.0732 134.917 27.9255 134.967 28.9873L134.974 29.377C134.974 30.1061 134.832 30.7578 134.55 31.332C134.272 31.9062 133.871 32.3506 133.347 32.665C132.827 32.9795 132.226 33.1367 131.542 33.1367C130.498 33.1367 129.662 32.7904 129.033 32.0977C128.409 31.4004 128.097 30.473 128.097 29.3154V29.2334ZM129.758 29.377C129.758 30.138 129.915 30.735 130.229 31.168C130.544 31.5964 130.981 31.8105 131.542 31.8105C132.103 31.8105 132.538 31.5918 132.848 31.1543C133.162 30.7168 133.319 30.0765 133.319 29.2334C133.319 28.486 133.158 27.8936 132.834 27.4561C132.515 27.0186 132.08 26.7998 131.528 26.7998C130.986 26.7998 130.555 27.0163 130.236 27.4492C129.917 27.8776 129.758 28.5202 129.758 29.377ZM136.963 33V26.834H135.835V25.6035H136.963V24.9268C136.963 24.1064 137.191 23.473 137.646 23.0264C138.102 22.5798 138.74 22.3564 139.561 22.3564C139.852 22.3564 140.162 22.3975 140.49 22.4795L140.449 23.7783C140.267 23.7419 140.055 23.7236 139.813 23.7236C139.021 23.7236 138.624 24.1315 138.624 24.9473V25.6035H140.128V26.834H138.624V33H136.963ZM146.465 26.4102C147.007 25.7812 147.693 25.4668 148.522 25.4668C150.099 25.4668 150.899 26.3669 150.922 28.167V33H149.261V28.2285C149.261 27.7181 149.149 27.3581 148.926 27.1484C148.707 26.9342 148.383 26.8271 147.955 26.8271C147.29 26.8271 146.793 27.1234 146.465 27.7158V33H144.804V22.5H146.465V26.4102ZM155.864 33.1367C154.812 33.1367 153.957 32.8063 153.301 32.1455C152.649 31.4801 152.323 30.596 152.323 29.4932V29.2881C152.323 28.5498 152.465 27.8913 152.747 27.3125C153.034 26.7292 153.435 26.2757 153.95 25.9521C154.465 25.6286 155.039 25.4668 155.673 25.4668C156.68 25.4668 157.457 25.7881 158.004 26.4307C158.555 27.0732 158.831 27.9824 158.831 29.1582V29.8281H153.998C154.048 30.4388 154.251 30.9219 154.606 31.2773C154.966 31.6328 155.418 31.8105 155.96 31.8105C156.721 31.8105 157.341 31.5029 157.819 30.8877L158.715 31.7422C158.419 32.1842 158.022 32.5283 157.525 32.7744C157.033 33.016 156.479 33.1367 155.864 33.1367ZM155.666 26.7998C155.21 26.7998 154.841 26.9593 154.559 27.2783C154.281 27.5973 154.103 28.0417 154.025 28.6113H157.19V28.4883C157.154 27.9323 157.006 27.513 156.746 27.2305C156.486 26.9434 156.126 26.7998 155.666 26.7998ZM164.546 33C164.473 32.8587 164.409 32.6286 164.354 32.3096C163.826 32.861 163.179 33.1367 162.413 33.1367C161.67 33.1367 161.064 32.9248 160.595 32.501C160.125 32.0771 159.891 31.5531 159.891 30.9287C159.891 30.1403 160.182 29.5365 160.766 29.1172C161.354 28.6934 162.192 28.4814 163.281 28.4814H164.3V27.9961C164.3 27.6133 164.193 27.3079 163.979 27.0801C163.764 26.8477 163.438 26.7314 163.001 26.7314C162.623 26.7314 162.313 26.8271 162.071 27.0186C161.83 27.2054 161.709 27.4447 161.709 27.7363H160.048C160.048 27.3307 160.182 26.9525 160.451 26.6016C160.72 26.2461 161.085 25.9681 161.545 25.7676C162.01 25.5671 162.527 25.4668 163.097 25.4668C163.963 25.4668 164.653 25.6855 165.168 26.123C165.683 26.556 165.947 27.1667 165.961 27.9551V31.291C165.961 31.9564 166.054 32.4873 166.241 32.8838V33H164.546ZM162.721 31.8037C163.049 31.8037 163.356 31.724 163.644 31.5645C163.935 31.4049 164.154 31.1908 164.3 30.9219V29.5273H163.404C162.789 29.5273 162.326 29.6344 162.017 29.8486C161.707 30.0628 161.552 30.3659 161.552 30.7578C161.552 31.0768 161.657 31.332 161.866 31.5234C162.08 31.7103 162.365 31.8037 162.721 31.8037ZM169.468 33H167.807V22.5H169.468V33ZM173.364 23.8057V25.6035H174.67V26.834H173.364V30.9629C173.364 31.2454 173.419 31.4505 173.528 31.5781C173.642 31.7012 173.843 31.7627 174.13 31.7627C174.321 31.7627 174.515 31.7399 174.711 31.6943V32.9795C174.333 33.0843 173.968 33.1367 173.617 33.1367C172.341 33.1367 171.703 32.4326 171.703 31.0244V26.834H170.486V25.6035H171.703V23.8057H173.364ZM177.582 26.4102C178.124 25.7812 178.81 25.4668 179.64 25.4668C181.216 25.4668 182.016 26.3669 182.039 28.167V33H180.378V28.2285C180.378 27.7181 180.266 27.3581 180.043 27.1484C179.824 26.9342 179.501 26.8271 179.072 26.8271C178.407 26.8271 177.91 27.1234 177.582 27.7158V33H175.921V22.5H177.582V26.4102ZM190.249 31.8105C190.664 31.8105 191.008 31.6898 191.281 31.4482C191.555 31.2067 191.701 30.9082 191.719 30.5527H193.284C193.266 31.013 193.122 31.4437 192.854 31.8447C192.585 32.2412 192.22 32.5557 191.76 32.7881C191.299 33.0205 190.803 33.1367 190.27 33.1367C189.235 33.1367 188.415 32.8018 187.809 32.1318C187.202 31.4619 186.899 30.5368 186.899 29.3564V29.1855C186.899 28.0599 187.2 27.1598 187.802 26.4854C188.403 25.8063 189.224 25.4668 190.263 25.4668C191.142 25.4668 191.858 25.7243 192.409 26.2393C192.965 26.7497 193.257 27.4219 193.284 28.2559H191.719C191.701 27.832 191.555 27.4834 191.281 27.21C191.012 26.9365 190.668 26.7998 190.249 26.7998C189.711 26.7998 189.297 26.9958 189.005 27.3877C188.713 27.7751 188.565 28.3652 188.561 29.1582V29.4248C188.561 30.2269 188.704 30.8262 188.991 31.2227C189.283 31.6146 189.702 31.8105 190.249 31.8105ZM194.228 29.2334C194.228 28.5088 194.371 27.8571 194.658 27.2783C194.945 26.695 195.349 26.2484 195.868 25.9385C196.388 25.624 196.985 25.4668 197.659 25.4668C198.657 25.4668 199.466 25.7881 200.086 26.4307C200.71 27.0732 201.048 27.9255 201.098 28.9873L201.104 29.377C201.104 30.1061 200.963 30.7578 200.681 31.332C200.403 31.9062 200.002 32.3506 199.478 32.665C198.958 32.9795 198.356 33.1367 197.673 33.1367C196.629 33.1367 195.793 32.7904 195.164 32.0977C194.54 31.4004 194.228 30.473 194.228 29.3154V29.2334ZM195.889 29.377C195.889 30.138 196.046 30.735 196.36 31.168C196.675 31.5964 197.112 31.8105 197.673 31.8105C198.233 31.8105 198.669 31.5918 198.979 31.1543C199.293 30.7168 199.45 30.0765 199.45 29.2334C199.45 28.486 199.288 27.8936 198.965 27.4561C198.646 27.0186 198.211 26.7998 197.659 26.7998C197.117 26.7998 196.686 27.0163 196.367 27.4492C196.048 27.8776 195.889 28.5202 195.889 29.377ZM204.051 25.6035L204.099 26.458C204.646 25.7972 205.363 25.4668 206.252 25.4668C207.792 25.4668 208.576 26.3486 208.604 28.1123V33H206.942V28.208C206.942 27.7386 206.84 27.3923 206.635 27.1689C206.434 26.9411 206.104 26.8271 205.644 26.8271C204.974 26.8271 204.475 27.1302 204.146 27.7363V33H202.485V25.6035H204.051ZM209.991 29.2471C209.991 28.1077 210.256 27.194 210.784 26.5059C211.313 25.8132 212.021 25.4668 212.91 25.4668C213.694 25.4668 214.327 25.7402 214.811 26.2871V22.5H216.472V33H214.968L214.886 32.2344C214.389 32.8359 213.726 33.1367 212.896 33.1367C212.031 33.1367 211.329 32.7881 210.791 32.0908C210.258 31.3936 209.991 30.4456 209.991 29.2471ZM211.652 29.3906C211.652 30.1426 211.796 30.7305 212.083 31.1543C212.375 31.5736 212.787 31.7832 213.32 31.7832C213.999 31.7832 214.496 31.4801 214.811 30.874V27.7158C214.505 27.1234 214.013 26.8271 213.334 26.8271C212.796 26.8271 212.382 27.0413 212.09 27.4697C211.798 27.8936 211.652 28.5339 211.652 29.3906ZM219.972 33H218.311V25.6035H219.972V33ZM218.208 23.6826C218.208 23.4274 218.288 23.2155 218.447 23.0469C218.611 22.8783 218.844 22.7939 219.145 22.7939C219.445 22.7939 219.678 22.8783 219.842 23.0469C220.006 23.2155 220.088 23.4274 220.088 23.6826C220.088 23.9333 220.006 24.1429 219.842 24.3115C219.678 24.4756 219.445 24.5576 219.145 24.5576C218.844 24.5576 218.611 24.4756 218.447 24.3115C218.288 24.1429 218.208 23.9333 218.208 23.6826ZM223.868 23.8057V25.6035H225.174V26.834H223.868V30.9629C223.868 31.2454 223.923 31.4505 224.032 31.5781C224.146 31.7012 224.347 31.7627 224.634 31.7627C224.825 31.7627 225.019 31.7399 225.215 31.6943V32.9795C224.837 33.0843 224.472 33.1367 224.121 33.1367C222.845 33.1367 222.207 32.4326 222.207 31.0244V26.834H220.99V25.6035H222.207V23.8057H223.868ZM228.216 33H226.555V25.6035H228.216V33ZM226.452 23.6826C226.452 23.4274 226.532 23.2155 226.691 23.0469C226.855 22.8783 227.088 22.7939 227.389 22.7939C227.689 22.7939 227.922 22.8783 228.086 23.0469C228.25 23.2155 228.332 23.4274 228.332 23.6826C228.332 23.9333 228.25 24.1429 228.086 24.3115C227.922 24.4756 227.689 24.5576 227.389 24.5576C227.088 24.5576 226.855 24.4756 226.691 24.3115C226.532 24.1429 226.452 23.9333 226.452 23.6826ZM229.72 29.2334C229.72 28.5088 229.863 27.8571 230.15 27.2783C230.438 26.695 230.841 26.2484 231.36 25.9385C231.88 25.624 232.477 25.4668 233.151 25.4668C234.149 25.4668 234.958 25.7881 235.578 26.4307C236.202 27.0732 236.54 27.9255 236.59 28.9873L236.597 29.377C236.597 30.1061 236.455 30.7578 236.173 31.332C235.895 31.9062 235.494 32.3506 234.97 32.665C234.45 32.9795 233.849 33.1367 233.165 33.1367C232.121 33.1367 231.285 32.7904 230.656 32.0977C230.032 31.4004 229.72 30.473 229.72 29.3154V29.2334ZM231.381 29.377C231.381 30.138 231.538 30.735 231.853 31.168C232.167 31.5964 232.604 31.8105 233.165 31.8105C233.726 31.8105 234.161 31.5918 234.471 31.1543C234.785 30.7168 234.942 30.0765 234.942 29.2334C234.942 28.486 234.781 27.8936 234.457 27.4561C234.138 27.0186 233.703 26.7998 233.151 26.7998C232.609 26.7998 232.178 27.0163 231.859 27.4492C231.54 27.8776 231.381 28.5202 231.381 29.377ZM239.543 25.6035L239.591 26.458C240.138 25.7972 240.855 25.4668 241.744 25.4668C243.285 25.4668 244.068 26.3486 244.096 28.1123V33H242.435V28.208C242.435 27.7386 242.332 27.3923 242.127 27.1689C241.926 26.9411 241.596 26.8271 241.136 26.8271C240.466 26.8271 239.967 27.1302 239.639 27.7363V33H237.978V25.6035H239.543Z" fill="#629B68"/>
<path d="M42.0117 79V69.0469H44.9512C45.8307 69.0469 46.61 69.2428 47.2891 69.6348C47.9727 70.0267 48.5013 70.5827 48.875 71.3027C49.2487 72.0228 49.4355 72.8477 49.4355 73.7773V74.2764C49.4355 75.2197 49.2464 76.0492 48.8682 76.7646C48.4945 77.4801 47.959 78.0316 47.2617 78.4189C46.569 78.8063 45.7738 79 44.876 79H42.0117ZM43.7412 70.4414V77.6191H44.8691C45.776 77.6191 46.471 77.3366 46.9541 76.7715C47.4417 76.2018 47.6901 75.3861 47.6992 74.3242V73.7705C47.6992 72.6904 47.4645 71.8656 46.9951 71.2959C46.5257 70.7262 45.8444 70.4414 44.9512 70.4414H43.7412ZM54.2549 79.1367C53.2021 79.1367 52.3477 78.8063 51.6914 78.1455C51.0397 77.4801 50.7139 76.596 50.7139 75.4932V75.2881C50.7139 74.5498 50.8551 73.8913 51.1377 73.3125C51.4248 72.7292 51.8258 72.2757 52.3408 71.9521C52.8558 71.6286 53.43 71.4668 54.0635 71.4668C55.0706 71.4668 55.8477 71.7881 56.3945 72.4307C56.946 73.0732 57.2217 73.9824 57.2217 75.1582V75.8281H52.3887C52.4388 76.4388 52.6416 76.9219 52.9971 77.2773C53.3571 77.6328 53.8083 77.8105 54.3506 77.8105C55.1117 77.8105 55.7314 77.5029 56.21 76.8877L57.1055 77.7422C56.8092 78.1842 56.4128 78.5283 55.916 78.7744C55.4238 79.016 54.8701 79.1367 54.2549 79.1367ZM54.0566 72.7998C53.6009 72.7998 53.2318 72.9593 52.9492 73.2783C52.6712 73.5973 52.4935 74.0417 52.416 74.6113H55.5811V74.4883C55.5446 73.9323 55.3965 73.513 55.1367 73.2305C54.877 72.9434 54.5169 72.7998 54.0566 72.7998ZM60.5986 69.8057V71.6035H61.9043V72.834H60.5986V76.9629C60.5986 77.2454 60.6533 77.4505 60.7627 77.5781C60.8766 77.7012 61.0771 77.7627 61.3643 77.7627C61.5557 77.7627 61.7493 77.7399 61.9453 77.6943V78.9795C61.5671 79.0843 61.2025 79.1367 60.8516 79.1367C59.5755 79.1367 58.9375 78.4326 58.9375 77.0244V72.834H57.7207V71.6035H58.9375V69.8057H60.5986ZM66.4365 79.1367C65.3838 79.1367 64.5293 78.8063 63.873 78.1455C63.2214 77.4801 62.8955 76.596 62.8955 75.4932V75.2881C62.8955 74.5498 63.0368 73.8913 63.3193 73.3125C63.6064 72.7292 64.0075 72.2757 64.5225 71.9521C65.0374 71.6286 65.6117 71.4668 66.2451 71.4668C67.2523 71.4668 68.0293 71.7881 68.5762 72.4307C69.1276 73.0732 69.4033 73.9824 69.4033 75.1582V75.8281H64.5703C64.6204 76.4388 64.8232 76.9219 65.1787 77.2773C65.5387 77.6328 65.9899 77.8105 66.5322 77.8105C67.2933 77.8105 67.9131 77.5029 68.3916 76.8877L69.2871 77.7422C68.9909 78.1842 68.5944 78.5283 68.0977 78.7744C67.6055 79.016 67.0518 79.1367 66.4365 79.1367ZM66.2383 72.7998C65.7826 72.7998 65.4134 72.9593 65.1309 73.2783C64.8529 73.5973 64.6751 74.0417 64.5977 74.6113H67.7627V74.4883C67.7262 73.9323 67.5781 73.513 67.3184 73.2305C67.0586 72.9434 66.6986 72.7998 66.2383 72.7998ZM74.5713 73.1211C74.3525 73.0846 74.127 73.0664 73.8945 73.0664C73.1335 73.0664 72.6208 73.3581 72.3564 73.9414V79H70.6953V71.6035H72.2812L72.3223 72.4307C72.7233 71.7881 73.2793 71.4668 73.9902 71.4668C74.2272 71.4668 74.4232 71.4987 74.5781 71.5625L74.5713 73.1211ZM77.3877 79H75.7266V71.6035H77.3877V79ZM75.624 69.6826C75.624 69.4274 75.7038 69.2155 75.8633 69.0469C76.0273 68.8783 76.2598 68.7939 76.5605 68.7939C76.8613 68.7939 77.0938 68.8783 77.2578 69.0469C77.4219 69.2155 77.5039 69.4274 77.5039 69.6826C77.5039 69.9333 77.4219 70.1429 77.2578 70.3115C77.0938 70.4756 76.8613 70.5576 76.5605 70.5576C76.2598 70.5576 76.0273 70.4756 75.8633 70.3115C75.7038 70.1429 75.624 69.9333 75.624 69.6826ZM78.8916 75.2334C78.8916 74.5088 79.0352 73.8571 79.3223 73.2783C79.6094 72.695 80.0127 72.2484 80.5322 71.9385C81.0518 71.624 81.6488 71.4668 82.3232 71.4668C83.3213 71.4668 84.1302 71.7881 84.75 72.4307C85.3743 73.0732 85.7116 73.9255 85.7617 74.9873L85.7686 75.377C85.7686 76.1061 85.6273 76.7578 85.3447 77.332C85.0667 77.9062 84.6657 78.3506 84.1416 78.665C83.6221 78.9795 83.0205 79.1367 82.3369 79.1367C81.2933 79.1367 80.457 78.7904 79.8281 78.0977C79.2038 77.4004 78.8916 76.473 78.8916 75.3154V75.2334ZM80.5527 75.377C80.5527 76.138 80.71 76.735 81.0244 77.168C81.3389 77.5964 81.7764 77.8105 82.3369 77.8105C82.8975 77.8105 83.3327 77.5918 83.6426 77.1543C83.957 76.7168 84.1143 76.0765 84.1143 75.2334C84.1143 74.486 83.9525 73.8936 83.6289 73.4561C83.3099 73.0186 82.8747 72.7998 82.3232 72.7998C81.7809 72.7998 81.3503 73.0163 81.0312 73.4492C80.7122 73.8776 80.5527 74.5202 80.5527 75.377ZM91.0459 73.1211C90.8271 73.0846 90.6016 73.0664 90.3691 73.0664C89.6081 73.0664 89.0954 73.3581 88.8311 73.9414V79H87.1699V71.6035H88.7559L88.7969 72.4307C89.1979 71.7881 89.7539 71.4668 90.4648 71.4668C90.7018 71.4668 90.8978 71.4987 91.0527 71.5625L91.0459 73.1211ZM96.3096 79C96.2367 78.8587 96.1729 78.6286 96.1182 78.3096C95.5895 78.861 94.9424 79.1367 94.1768 79.1367C93.4339 79.1367 92.8278 78.9248 92.3584 78.501C91.889 78.0771 91.6543 77.5531 91.6543 76.9287C91.6543 76.1403 91.946 75.5365 92.5293 75.1172C93.1172 74.6934 93.9557 74.4814 95.0449 74.4814H96.0635V73.9961C96.0635 73.6133 95.9564 73.3079 95.7422 73.0801C95.528 72.8477 95.2021 72.7314 94.7646 72.7314C94.3864 72.7314 94.0765 72.8271 93.835 73.0186C93.5934 73.2054 93.4727 73.4447 93.4727 73.7363H91.8115C91.8115 73.3307 91.946 72.9525 92.2148 72.6016C92.4837 72.2461 92.8483 71.9681 93.3086 71.7676C93.7734 71.5671 94.2907 71.4668 94.8604 71.4668C95.7262 71.4668 96.4167 71.6855 96.9316 72.123C97.4466 72.556 97.7109 73.1667 97.7246 73.9551V77.291C97.7246 77.9564 97.818 78.4873 98.0049 78.8838V79H96.3096ZM94.4844 77.8037C94.8125 77.8037 95.1201 77.724 95.4072 77.5645C95.6989 77.4049 95.9176 77.1908 96.0635 76.9219V75.5273H95.168C94.5527 75.5273 94.0902 75.6344 93.7803 75.8486C93.4704 76.0628 93.3154 76.3659 93.3154 76.7578C93.3154 77.0768 93.4202 77.332 93.6299 77.5234C93.8441 77.7103 94.1289 77.8037 94.4844 77.8037ZM101.546 69.8057V71.6035H102.852V72.834H101.546V76.9629C101.546 77.2454 101.601 77.4505 101.71 77.5781C101.824 77.7012 102.024 77.7627 102.312 77.7627C102.503 77.7627 102.697 77.7399 102.893 77.6943V78.9795C102.514 79.0843 102.15 79.1367 101.799 79.1367C100.523 79.1367 99.8848 78.4326 99.8848 77.0244V72.834H98.668V71.6035H99.8848V69.8057H101.546ZM105.894 79H104.232V71.6035H105.894V79ZM104.13 69.6826C104.13 69.4274 104.21 69.2155 104.369 69.0469C104.533 68.8783 104.766 68.7939 105.066 68.7939C105.367 68.7939 105.6 68.8783 105.764 69.0469C105.928 69.2155 106.01 69.4274 106.01 69.6826C106.01 69.9333 105.928 70.1429 105.764 70.3115C105.6 70.4756 105.367 70.5576 105.066 70.5576C104.766 70.5576 104.533 70.4756 104.369 70.3115C104.21 70.1429 104.13 69.9333 104.13 69.6826ZM107.397 75.2334C107.397 74.5088 107.541 73.8571 107.828 73.2783C108.115 72.695 108.519 72.2484 109.038 71.9385C109.558 71.624 110.155 71.4668 110.829 71.4668C111.827 71.4668 112.636 71.7881 113.256 72.4307C113.88 73.0732 114.217 73.9255 114.268 74.9873L114.274 75.377C114.274 76.1061 114.133 76.7578 113.851 77.332C113.573 77.9062 113.172 78.3506 112.647 78.665C112.128 78.9795 111.526 79.1367 110.843 79.1367C109.799 79.1367 108.963 78.7904 108.334 78.0977C107.71 77.4004 107.397 76.473 107.397 75.3154V75.2334ZM109.059 75.377C109.059 76.138 109.216 76.735 109.53 77.168C109.845 77.5964 110.282 77.8105 110.843 77.8105C111.403 77.8105 111.839 77.5918 112.148 77.1543C112.463 76.7168 112.62 76.0765 112.62 75.2334C112.62 74.486 112.458 73.8936 112.135 73.4561C111.816 73.0186 111.381 72.7998 110.829 72.7998C110.287 72.7998 109.856 73.0163 109.537 73.4492C109.218 73.8776 109.059 74.5202 109.059 75.377ZM117.221 71.6035L117.269 72.458C117.815 71.7972 118.533 71.4668 119.422 71.4668C120.962 71.4668 121.746 72.3486 121.773 74.1123V79H120.112V74.208C120.112 73.7386 120.01 73.3923 119.805 73.1689C119.604 72.9411 119.274 72.8271 118.813 72.8271C118.144 72.8271 117.645 73.1302 117.316 73.7363V79H115.655V71.6035H117.221ZM126.647 75.2334C126.647 74.5088 126.791 73.8571 127.078 73.2783C127.365 72.695 127.769 72.2484 128.288 71.9385C128.808 71.624 129.405 71.4668 130.079 71.4668C131.077 71.4668 131.886 71.7881 132.506 72.4307C133.13 73.0732 133.467 73.9255 133.518 74.9873L133.524 75.377C133.524 76.1061 133.383 76.7578 133.101 77.332C132.823 77.9062 132.422 78.3506 131.897 78.665C131.378 78.9795 130.776 79.1367 130.093 79.1367C129.049 79.1367 128.213 78.7904 127.584 78.0977C126.96 77.4004 126.647 76.473 126.647 75.3154V75.2334ZM128.309 75.377C128.309 76.138 128.466 76.735 128.78 77.168C129.095 77.5964 129.532 77.8105 130.093 77.8105C130.653 77.8105 131.089 77.5918 131.398 77.1543C131.713 76.7168 131.87 76.0765 131.87 75.2334C131.87 74.486 131.708 73.8936 131.385 73.4561C131.066 73.0186 130.631 72.7998 130.079 72.7998C129.537 72.7998 129.106 73.0163 128.787 73.4492C128.468 73.8776 128.309 74.5202 128.309 75.377ZM135.514 79V72.834H134.386V71.6035H135.514V70.9268C135.514 70.1064 135.742 69.473 136.197 69.0264C136.653 68.5798 137.291 68.3564 138.111 68.3564C138.403 68.3564 138.713 68.3975 139.041 68.4795L139 69.7783C138.818 69.7419 138.606 69.7236 138.364 69.7236C137.571 69.7236 137.175 70.1315 137.175 70.9473V71.6035H138.679V72.834H137.175V79H135.514ZM145.016 72.4102C145.558 71.7812 146.244 71.4668 147.073 71.4668C148.65 71.4668 149.45 72.3669 149.473 74.167V79H147.812V74.2285C147.812 73.7181 147.7 73.3581 147.477 73.1484C147.258 72.9342 146.934 72.8271 146.506 72.8271C145.84 72.8271 145.344 73.1234 145.016 73.7158V79H143.354V68.5H145.016V72.4102ZM154.415 79.1367C153.362 79.1367 152.508 78.8063 151.852 78.1455C151.2 77.4801 150.874 76.596 150.874 75.4932V75.2881C150.874 74.5498 151.015 73.8913 151.298 73.3125C151.585 72.7292 151.986 72.2757 152.501 71.9521C153.016 71.6286 153.59 71.4668 154.224 71.4668C155.231 71.4668 156.008 71.7881 156.555 72.4307C157.106 73.0732 157.382 73.9824 157.382 75.1582V75.8281H152.549C152.599 76.4388 152.802 76.9219 153.157 77.2773C153.517 77.6328 153.968 77.8105 154.511 77.8105C155.272 77.8105 155.892 77.5029 156.37 76.8877L157.266 77.7422C156.969 78.1842 156.573 78.5283 156.076 78.7744C155.584 79.016 155.03 79.1367 154.415 79.1367ZM154.217 72.7998C153.761 72.7998 153.392 72.9593 153.109 73.2783C152.831 73.5973 152.654 74.0417 152.576 74.6113H155.741V74.4883C155.705 73.9323 155.557 73.513 155.297 73.2305C155.037 72.9434 154.677 72.7998 154.217 72.7998ZM163.097 79C163.024 78.8587 162.96 78.6286 162.905 78.3096C162.377 78.861 161.729 79.1367 160.964 79.1367C160.221 79.1367 159.615 78.9248 159.146 78.501C158.676 78.0771 158.441 77.5531 158.441 76.9287C158.441 76.1403 158.733 75.5365 159.316 75.1172C159.904 74.6934 160.743 74.4814 161.832 74.4814H162.851V73.9961C162.851 73.6133 162.743 73.3079 162.529 73.0801C162.315 72.8477 161.989 72.7314 161.552 72.7314C161.174 72.7314 160.864 72.8271 160.622 73.0186C160.381 73.2054 160.26 73.4447 160.26 73.7363H158.599C158.599 73.3307 158.733 72.9525 159.002 72.6016C159.271 72.2461 159.635 71.9681 160.096 71.7676C160.561 71.5671 161.078 71.4668 161.647 71.4668C162.513 71.4668 163.204 71.6855 163.719 72.123C164.234 72.556 164.498 73.1667 164.512 73.9551V77.291C164.512 77.9564 164.605 78.4873 164.792 78.8838V79H163.097ZM161.271 77.8037C161.6 77.8037 161.907 77.724 162.194 77.5645C162.486 77.4049 162.705 77.1908 162.851 76.9219V75.5273H161.955C161.34 75.5273 160.877 75.6344 160.567 75.8486C160.257 76.0628 160.103 76.3659 160.103 76.7578C160.103 77.0768 160.207 77.332 160.417 77.5234C160.631 77.7103 160.916 77.8037 161.271 77.8037ZM168.019 79H166.357V68.5H168.019V79ZM171.915 69.8057V71.6035H173.221V72.834H171.915V76.9629C171.915 77.2454 171.97 77.4505 172.079 77.5781C172.193 77.7012 172.394 77.7627 172.681 77.7627C172.872 77.7627 173.066 77.7399 173.262 77.6943V78.9795C172.883 79.0843 172.519 79.1367 172.168 79.1367C170.892 79.1367 170.254 78.4326 170.254 77.0244V72.834H169.037V71.6035H170.254V69.8057H171.915ZM176.133 72.4102C176.675 71.7812 177.361 71.4668 178.19 71.4668C179.767 71.4668 180.567 72.3669 180.59 74.167V79H178.929V74.2285C178.929 73.7181 178.817 73.3581 178.594 73.1484C178.375 72.9342 178.051 72.8271 177.623 72.8271C176.958 72.8271 176.461 73.1234 176.133 73.7158V79H174.472V68.5H176.133V72.4102ZM188.8 77.8105C189.215 77.8105 189.559 77.6898 189.832 77.4482C190.105 77.2067 190.251 76.9082 190.27 76.5527H191.835C191.817 77.013 191.673 77.4437 191.404 77.8447C191.135 78.2412 190.771 78.5557 190.311 78.7881C189.85 79.0205 189.354 79.1367 188.82 79.1367C187.786 79.1367 186.965 78.8018 186.359 78.1318C185.753 77.4619 185.45 76.5368 185.45 75.3564V75.1855C185.45 74.0599 185.751 73.1598 186.353 72.4854C186.954 71.8063 187.774 71.4668 188.813 71.4668C189.693 71.4668 190.409 71.7243 190.96 72.2393C191.516 72.7497 191.808 73.4219 191.835 74.2559H190.27C190.251 73.832 190.105 73.4834 189.832 73.21C189.563 72.9365 189.219 72.7998 188.8 72.7998C188.262 72.7998 187.847 72.9958 187.556 73.3877C187.264 73.7751 187.116 74.3652 187.111 75.1582V75.4248C187.111 76.2269 187.255 76.8262 187.542 77.2227C187.834 77.6146 188.253 77.8105 188.8 77.8105ZM192.778 75.2334C192.778 74.5088 192.922 73.8571 193.209 73.2783C193.496 72.695 193.899 72.2484 194.419 71.9385C194.938 71.624 195.535 71.4668 196.21 71.4668C197.208 71.4668 198.017 71.7881 198.637 72.4307C199.261 73.0732 199.598 73.9255 199.648 74.9873L199.655 75.377C199.655 76.1061 199.514 76.7578 199.231 77.332C198.953 77.9062 198.552 78.3506 198.028 78.665C197.509 78.9795 196.907 79.1367 196.224 79.1367C195.18 79.1367 194.344 78.7904 193.715 78.0977C193.09 77.4004 192.778 76.473 192.778 75.3154V75.2334ZM194.439 75.377C194.439 76.138 194.597 76.735 194.911 77.168C195.226 77.5964 195.663 77.8105 196.224 77.8105C196.784 77.8105 197.219 77.5918 197.529 77.1543C197.844 76.7168 198.001 76.0765 198.001 75.2334C198.001 74.486 197.839 73.8936 197.516 73.4561C197.197 73.0186 196.761 72.7998 196.21 72.7998C195.668 72.7998 195.237 73.0163 194.918 73.4492C194.599 73.8776 194.439 74.5202 194.439 75.377ZM202.602 71.6035L202.649 72.458C203.196 71.7972 203.914 71.4668 204.803 71.4668C206.343 71.4668 207.127 72.3486 207.154 74.1123V79H205.493V74.208C205.493 73.7386 205.391 73.3923 205.186 73.1689C204.985 72.9411 204.655 72.8271 204.194 72.8271C203.524 72.8271 203.025 73.1302 202.697 73.7363V79H201.036V71.6035H202.602ZM208.542 75.2471C208.542 74.1077 208.806 73.194 209.335 72.5059C209.864 71.8132 210.572 71.4668 211.461 71.4668C212.245 71.4668 212.878 71.7402 213.361 72.2871V68.5H215.022V79H213.519L213.437 78.2344C212.94 78.8359 212.277 79.1367 211.447 79.1367C210.581 79.1367 209.88 78.7881 209.342 78.0908C208.809 77.3936 208.542 76.4456 208.542 75.2471ZM210.203 75.3906C210.203 76.1426 210.347 76.7305 210.634 77.1543C210.925 77.5736 211.338 77.7832 211.871 77.7832C212.55 77.7832 213.047 77.4801 213.361 76.874V73.7158C213.056 73.1234 212.564 72.8271 211.885 72.8271C211.347 72.8271 210.932 73.0413 210.641 73.4697C210.349 73.8936 210.203 74.5339 210.203 75.3906ZM218.522 79H216.861V71.6035H218.522V79ZM216.759 69.6826C216.759 69.4274 216.839 69.2155 216.998 69.0469C217.162 68.8783 217.395 68.7939 217.695 68.7939C217.996 68.7939 218.229 68.8783 218.393 69.0469C218.557 69.2155 218.639 69.4274 218.639 69.6826C218.639 69.9333 218.557 70.1429 218.393 70.3115C218.229 70.4756 217.996 70.5576 217.695 70.5576C217.395 70.5576 217.162 70.4756 216.998 70.3115C216.839 70.1429 216.759 69.9333 216.759 69.6826ZM222.419 69.8057V71.6035H223.725V72.834H222.419V76.9629C222.419 77.2454 222.474 77.4505 222.583 77.5781C222.697 77.7012 222.897 77.7627 223.185 77.7627C223.376 77.7627 223.57 77.7399 223.766 77.6943V78.9795C223.387 79.0843 223.023 79.1367 222.672 79.1367C221.396 79.1367 220.758 78.4326 220.758 77.0244V72.834H219.541V71.6035H220.758V69.8057H222.419ZM224.483 75.2334C224.483 74.5088 224.627 73.8571 224.914 73.2783C225.201 72.695 225.604 72.2484 226.124 71.9385C226.644 71.624 227.241 71.4668 227.915 71.4668C228.913 71.4668 229.722 71.7881 230.342 72.4307C230.966 73.0732 231.303 73.9255 231.354 74.9873L231.36 75.377C231.36 76.1061 231.219 76.7578 230.937 77.332C230.659 77.9062 230.257 78.3506 229.733 78.665C229.214 78.9795 228.612 79.1367 227.929 79.1367C226.885 79.1367 226.049 78.7904 225.42 78.0977C224.796 77.4004 224.483 76.473 224.483 75.3154V75.2334ZM226.145 75.377C226.145 76.138 226.302 76.735 226.616 77.168C226.931 77.5964 227.368 77.8105 227.929 77.8105C228.489 77.8105 228.924 77.5918 229.234 77.1543C229.549 76.7168 229.706 76.0765 229.706 75.2334C229.706 74.486 229.544 73.8936 229.221 73.4561C228.902 73.0186 228.466 72.7998 227.915 72.7998C227.373 72.7998 226.942 73.0163 226.623 73.4492C226.304 73.8776 226.145 74.5202 226.145 75.377ZM234.307 71.6035L234.354 72.458C234.901 71.7972 235.619 71.4668 236.508 71.4668C238.048 71.4668 238.832 72.3486 238.859 74.1123V79H237.198V74.208C237.198 73.7386 237.096 73.3923 236.891 73.1689C236.69 72.9411 236.36 72.8271 235.899 72.8271C235.229 72.8271 234.73 73.1302 234.402 73.7363V79H232.741V71.6035H234.307Z" fill="#FD4C76"/>
<rect y="2" width="34" height="34" rx="5" fill="#629B68"/>
<path d="M17 8.94623C15.0115 8.94623 13.0678 9.53587 11.4144 10.6406C9.76109 11.7453 8.47248 13.3155 7.71153 15.1526C6.95058 16.9897 6.75149 19.0111 7.13941 20.9614C7.52734 22.9116 8.48487 24.703 9.89091 26.1091C11.297 27.5151 13.0884 28.4726 15.0386 28.8606C16.9888 29.2485 19.0103 29.0494 20.8474 28.2885C22.6845 27.5275 24.2547 26.2389 25.3594 24.5856C26.4641 22.9322 27.0538 20.9884 27.0538 19C27.0538 16.3336 25.9945 13.7764 24.1091 11.8909C22.2236 10.0055 19.6664 8.94623 17 8.94623V8.94623ZM11.7972 15.5482C12.4751 14.8749 13.2775 14.3399 14.1598 13.9731C14.3653 13.8876 14.5964 13.8872 14.8023 13.972C15.0081 14.0569 15.1718 14.22 15.2573 14.4255C15.3429 14.6311 15.3433 14.8622 15.2584 15.068C15.1736 15.2738 15.0105 15.4375 14.8049 15.5231C14.1255 15.8018 13.5077 16.2118 12.9869 16.7295C12.8302 16.8873 12.6173 16.9764 12.395 16.9771C12.1727 16.9779 11.9591 16.8904 11.8014 16.7337C11.6436 16.5771 11.5545 16.3641 11.5537 16.1418C11.553 15.9195 11.6405 15.706 11.7972 15.5482ZM13.1879 21.5134C13.2802 21.4525 13.3837 21.4104 13.4923 21.3896C13.6009 21.3688 13.7126 21.3698 13.8208 21.3923C13.9291 21.4149 14.0318 21.4587 14.1231 21.5212C14.2143 21.5837 14.2923 21.6636 14.3525 21.7564C14.638 22.1991 15.0299 22.5631 15.4924 22.8152C15.9549 23.0673 16.4732 23.1994 17 23.1994C17.5267 23.1994 18.0451 23.0673 18.5076 22.8152C18.9701 22.5631 19.362 22.1991 19.6475 21.7564C19.708 21.664 19.7861 21.5844 19.8774 21.5222C19.9687 21.4599 20.0713 21.4163 20.1794 21.3937C20.2876 21.3712 20.3991 21.3701 20.5077 21.3907C20.6162 21.4112 20.7196 21.4529 20.812 21.5134C20.9045 21.5739 20.9841 21.6521 21.0463 21.7433C21.1085 21.8346 21.1522 21.9373 21.1747 22.0454C21.1973 22.1535 21.1983 22.2651 21.1778 22.3736C21.1572 22.4821 21.1155 22.5856 21.055 22.678C20.6149 23.3522 20.0136 23.906 19.3056 24.2893C18.5976 24.6727 17.8051 24.8734 17 24.8734C16.1949 24.8734 15.4024 24.6727 14.6944 24.2893C13.9864 23.906 13.3851 23.3522 12.945 22.678C12.884 22.5857 12.8419 22.4823 12.8212 22.3737C12.8004 22.265 12.8013 22.1534 12.8239 22.0451C12.8465 21.9368 12.8903 21.8341 12.9528 21.7429C13.0152 21.6516 13.0952 21.5736 13.1879 21.5134ZM22.2028 16.7379C22.1249 16.8164 22.0323 16.8788 21.9302 16.9213C21.8281 16.9638 21.7186 16.9857 21.608 16.9857C21.4974 16.9857 21.3879 16.9638 21.2858 16.9213C21.1837 16.8788 21.091 16.8164 21.0131 16.7379C20.493 16.2172 19.8752 15.8043 19.1951 15.5231C18.9895 15.4375 18.8264 15.2738 18.7416 15.068C18.6567 14.8622 18.6571 14.6311 18.7426 14.4255C18.8282 14.22 18.9919 14.0569 19.1977 13.972C19.4035 13.8872 19.6346 13.8876 19.8402 13.9731C20.7231 14.3424 21.5256 14.8802 22.2028 15.5566C22.3563 15.7132 22.4423 15.9237 22.4423 16.143C22.4423 16.3623 22.3563 16.5729 22.2028 16.7295V16.7379Z" fill="white"/>
<path d="M52.5488 63H49.9121L44.7793 54.5801V63H42.1426V50.2031H44.7793L49.9209 58.6406V50.2031H52.5488V63ZM59.0615 63.1758C57.667 63.1758 56.5303 62.748 55.6514 61.8926C54.7783 61.0371 54.3418 59.8975 54.3418 58.4736V58.2275C54.3418 57.2725 54.5264 56.4199 54.8955 55.6699C55.2646 54.9141 55.7861 54.334 56.46 53.9297C57.1396 53.5195 57.9131 53.3145 58.7803 53.3145C60.0811 53.3145 61.1035 53.7246 61.8477 54.5449C62.5977 55.3652 62.9727 56.5283 62.9727 58.0342V59.0713H56.917C56.999 59.6924 57.2451 60.1904 57.6553 60.5654C58.0713 60.9404 58.5957 61.1279 59.2285 61.1279C60.207 61.1279 60.9717 60.7734 61.5225 60.0645L62.7705 61.4619C62.3896 62.001 61.874 62.4229 61.2236 62.7275C60.5732 63.0264 59.8525 63.1758 59.0615 63.1758ZM58.7715 55.3711C58.2676 55.3711 57.8574 55.541 57.541 55.8809C57.2305 56.2207 57.0312 56.707 56.9434 57.3398H60.4766V57.1377C60.4648 56.5752 60.3125 56.1416 60.0195 55.8369C59.7266 55.5264 59.3105 55.3711 58.7715 55.3711ZM64.0537 58.1748C64.0537 56.7158 64.3994 55.541 65.0908 54.6504C65.7881 53.7598 66.7256 53.3145 67.9033 53.3145C68.9463 53.3145 69.7578 53.6719 70.3379 54.3867L70.4434 53.4902H72.7461V62.6836C72.7461 63.5156 72.5557 64.2393 72.1748 64.8545C71.7998 65.4697 71.2695 65.9385 70.584 66.2607C69.8984 66.583 69.0957 66.7441 68.1758 66.7441C67.4785 66.7441 66.7988 66.6035 66.1367 66.3223C65.4746 66.0469 64.9736 65.6895 64.6338 65.25L65.7588 63.7031C66.3916 64.4121 67.1592 64.7666 68.0615 64.7666C68.7354 64.7666 69.2598 64.585 69.6348 64.2217C70.0098 63.8643 70.1973 63.3545 70.1973 62.6924V62.1826C69.6113 62.8447 68.8408 63.1758 67.8857 63.1758C66.7432 63.1758 65.8174 62.7305 65.1084 61.8398C64.4053 60.9434 64.0537 59.7568 64.0537 58.2803V58.1748ZM66.5938 58.3594C66.5938 59.2207 66.7666 59.8975 67.1123 60.3896C67.458 60.876 67.9326 61.1191 68.5361 61.1191C69.3096 61.1191 69.8633 60.8291 70.1973 60.249V56.25C69.8574 55.6699 69.3096 55.3799 68.5537 55.3799C67.9443 55.3799 67.4639 55.6289 67.1123 56.127C66.7666 56.625 66.5938 57.3691 66.5938 58.3594ZM80.2168 63C80.0996 62.7715 80.0146 62.4873 79.9619 62.1475C79.3467 62.833 78.5469 63.1758 77.5625 63.1758C76.6309 63.1758 75.8574 62.9062 75.2422 62.3672C74.6328 61.8281 74.3281 61.1484 74.3281 60.3281C74.3281 59.3203 74.7002 58.5469 75.4443 58.0078C76.1943 57.4688 77.2754 57.1963 78.6875 57.1904H79.8564V56.6455C79.8564 56.2061 79.7422 55.8545 79.5137 55.5908C79.291 55.3271 78.9365 55.1953 78.4502 55.1953C78.0225 55.1953 77.6855 55.2979 77.4395 55.5029C77.1992 55.708 77.0791 55.9893 77.0791 56.3467H74.5391C74.5391 55.7959 74.709 55.2861 75.0488 54.8174C75.3887 54.3486 75.8691 53.9824 76.4902 53.7188C77.1113 53.4492 77.8086 53.3145 78.582 53.3145C79.7539 53.3145 80.6826 53.6104 81.3682 54.2021C82.0596 54.7881 82.4053 55.6143 82.4053 56.6807V60.8027C82.4111 61.7051 82.5371 62.3877 82.7832 62.8506V63H80.2168ZM78.1162 61.2334C78.4912 61.2334 78.8369 61.1514 79.1533 60.9873C79.4697 60.8174 79.7041 60.5918 79.8564 60.3105V58.6758H78.9072C77.6357 58.6758 76.959 59.1152 76.877 59.9941L76.8682 60.1436C76.8682 60.46 76.9795 60.7207 77.2021 60.9258C77.4248 61.1309 77.7295 61.2334 78.1162 61.2334ZM87.3975 51.1523V53.4902H89.0234V55.3535H87.3975V60.0996C87.3975 60.4512 87.4648 60.7031 87.5996 60.8555C87.7344 61.0078 87.9922 61.084 88.373 61.084C88.6543 61.084 88.9033 61.0635 89.1201 61.0225V62.9473C88.6221 63.0996 88.1094 63.1758 87.582 63.1758C85.8008 63.1758 84.8926 62.2764 84.8574 60.4775V55.3535H83.4688V53.4902H84.8574V51.1523H87.3975ZM93.1191 63H90.5703V53.4902H93.1191V63ZM90.4209 51.0293C90.4209 50.6484 90.5469 50.335 90.7988 50.0889C91.0566 49.8428 91.4053 49.7197 91.8447 49.7197C92.2783 49.7197 92.624 49.8428 92.8818 50.0889C93.1396 50.335 93.2686 50.6484 93.2686 51.0293C93.2686 51.416 93.1367 51.7324 92.873 51.9785C92.6152 52.2246 92.2725 52.3477 91.8447 52.3477C91.417 52.3477 91.0713 52.2246 90.8076 51.9785C90.5498 51.7324 90.4209 51.416 90.4209 51.0293ZM98.7793 59.8975L100.546 53.4902H103.2L99.9922 63H97.5664L94.3584 53.4902H97.0127L98.7793 59.8975ZM108.579 63.1758C107.185 63.1758 106.048 62.748 105.169 61.8926C104.296 61.0371 103.859 59.8975 103.859 58.4736V58.2275C103.859 57.2725 104.044 56.4199 104.413 55.6699C104.782 54.9141 105.304 54.334 105.978 53.9297C106.657 53.5195 107.431 53.3145 108.298 53.3145C109.599 53.3145 110.621 53.7246 111.365 54.5449C112.115 55.3652 112.49 56.5283 112.49 58.0342V59.0713H106.435C106.517 59.6924 106.763 60.1904 107.173 60.5654C107.589 60.9404 108.113 61.1279 108.746 61.1279C109.725 61.1279 110.489 60.7734 111.04 60.0645L112.288 61.4619C111.907 62.001 111.392 62.4229 110.741 62.7275C110.091 63.0264 109.37 63.1758 108.579 63.1758ZM108.289 55.3711C107.785 55.3711 107.375 55.541 107.059 55.8809C106.748 56.2207 106.549 56.707 106.461 57.3398H109.994V57.1377C109.982 56.5752 109.83 56.1416 109.537 55.8369C109.244 55.5264 108.828 55.3711 108.289 55.3711Z" fill="#FD4C76"/>
<rect y="48" width="34" height="34" rx="5" fill="#FD4C76"/>
<g clip-path="url(#clip0)">
<path d="M27 65C27 63.0222 26.4135 61.0888 25.3147 59.4443C24.2159 57.7998 22.6541 56.5181 20.8268 55.7612C18.9996 55.0043 16.9889 54.8063 15.0491 55.1922C13.1093 55.578 11.3275 56.5304 9.92894 57.9289C8.53041 59.3275 7.578 61.1093 7.19215 63.0491C6.8063 64.9889 7.00433 66.9996 7.76121 68.8268C8.51809 70.6541 9.79981 72.2159 11.4443 73.3147C13.0888 74.4135 15.0222 75 17 75C17.9829 75.0017 18.9605 74.8556 19.9 74.5667C19.9436 74.5542 19.9898 74.5542 20.0333 74.5667C20.837 74.8473 21.6821 74.991 22.5333 74.9917C23.3042 74.9921 24.0619 74.7922 24.7322 74.4118C25.4026 74.0313 25.9626 73.4832 26.3575 72.8212C26.7523 72.1592 26.9684 71.406 26.9847 70.6353C27.0009 69.8647 26.8166 69.103 26.45 68.425C26.4375 68.399 26.4309 68.3705 26.4309 68.3417C26.4309 68.3128 26.4375 68.2843 26.45 68.2583C26.8149 67.2108 27.0008 66.1093 27 65ZM23.6 62.4167C23.3735 62.9379 22.9997 63.3816 22.5244 63.6932C22.0492 64.0049 21.4933 64.1709 20.925 64.1709C20.3567 64.1709 19.8008 64.0049 19.3256 63.6932C18.8503 63.3816 18.4765 62.9379 18.25 62.4167C18.1598 62.2155 18.153 61.9868 18.2311 61.7806C18.3092 61.5744 18.4658 61.4076 18.6667 61.3167C18.869 61.2301 19.0973 61.2271 19.3018 61.3083C19.5063 61.3895 19.6704 61.5483 19.7583 61.75C19.8556 61.973 20.0158 62.1628 20.2193 62.2961C20.4229 62.4294 20.6609 62.5004 20.9042 62.5004C21.1475 62.5004 21.3855 62.4294 21.589 62.2961C21.7926 62.1628 21.9528 61.973 22.05 61.75C22.1384 61.5467 22.304 61.3868 22.5103 61.3055C22.7165 61.2243 22.9467 61.2283 23.15 61.3167C23.3533 61.4051 23.5132 61.5706 23.5945 61.7769C23.6758 61.9832 23.6717 62.2133 23.5833 62.4167H23.6ZM13.25 64.1667C12.7094 64.155 12.1854 63.9778 11.7488 63.6589C11.3122 63.34 10.9839 62.8947 10.8083 62.3833C10.7591 62.2798 10.7318 62.1672 10.7281 62.0526C10.7244 61.938 10.7444 61.8239 10.7868 61.7174C10.8292 61.6109 10.8932 61.5143 10.9746 61.4336C11.0561 61.3529 11.1533 61.2899 11.2602 61.2486C11.3671 61.2072 11.4814 61.1883 11.596 61.1931C11.7105 61.1979 11.8228 61.2263 11.9259 61.2765C12.029 61.3267 12.1206 61.3976 12.195 61.4848C12.2694 61.572 12.325 61.6737 12.3583 61.7833C12.4179 61.9785 12.5348 62.1512 12.6938 62.279C12.8528 62.4068 13.0466 62.4838 13.25 62.5C13.4534 62.4838 13.6472 62.4068 13.8062 62.279C13.9652 62.1512 14.0821 61.9785 14.1417 61.7833C14.175 61.6737 14.2306 61.572 14.305 61.4848C14.3795 61.3976 14.4711 61.3267 14.5741 61.2765C14.6772 61.2263 14.7895 61.1979 14.9041 61.1931C15.0186 61.1883 15.1329 61.2072 15.2398 61.2486C15.3467 61.2899 15.4439 61.3529 15.5254 61.4336C15.6069 61.5143 15.6708 61.6109 15.7132 61.7174C15.7556 61.8239 15.7756 61.938 15.7719 62.0526C15.7682 62.1672 15.7409 62.2798 15.6917 62.3833C15.5161 62.8947 15.1878 63.34 14.7512 63.6589C14.3146 63.9778 13.7906 64.155 13.25 64.1667ZM12.6667 70.4167C12.594 70.4162 12.5226 70.3968 12.4598 70.3602C12.3969 70.3237 12.3447 70.2713 12.3083 70.2083C12.2718 70.145 12.2525 70.0731 12.2525 70C12.2525 69.9269 12.2718 69.855 12.3083 69.7917C12.8513 68.8548 13.6606 68.1006 14.6333 67.625C14.6633 67.6109 14.696 67.6036 14.7292 67.6036C14.7623 67.6036 14.795 67.6109 14.825 67.625C14.8535 67.6439 14.8778 67.6684 14.8964 67.6971C14.9151 67.7258 14.9276 67.758 14.9333 67.7917C14.9744 68.5912 15.1432 69.3789 15.4333 70.125C15.448 70.1548 15.4557 70.1876 15.4557 70.2208C15.4557 70.2541 15.448 70.2869 15.4333 70.3167C15.4135 70.3447 15.3873 70.3677 15.3569 70.3836C15.3265 70.3996 15.2927 70.408 15.2583 70.4083L12.6667 70.4167ZM25.3333 70.55C25.3311 71.2875 25.0372 71.9942 24.5157 72.5157C23.9942 73.0372 23.2875 73.3311 22.55 73.3333C20.9682 73.3311 19.4519 72.7018 18.3334 71.5833C17.2149 70.4648 16.5855 68.9485 16.5833 67.3667C16.6361 67.1968 16.7418 67.0483 16.885 66.9429C17.0282 66.8374 17.2013 66.7805 17.3792 66.7805C17.557 66.7805 17.7302 66.8374 17.8734 66.9429C18.0166 67.0483 18.1223 67.1968 18.175 67.3667C18.1788 67.6546 18.2649 67.9354 18.4231 68.1759C18.5814 68.4165 18.8052 68.6067 19.0681 68.7241C19.331 68.8416 19.622 68.8813 19.9067 68.8386C20.1915 68.7959 20.4581 68.6727 20.675 68.4833C21.1823 68.0192 21.8458 67.7633 22.5333 67.7667C22.9003 67.7645 23.264 67.8348 23.6036 67.9737C23.9432 68.1126 24.252 68.3173 24.5122 68.576C24.7725 68.8347 24.979 69.1422 25.1199 69.481C25.2608 69.8198 25.3333 70.1831 25.3333 70.55Z" fill="white"/>
</g>
<path d="M314.549 17H311.912L306.779 8.58008V17H304.143V4.20312H306.779L311.921 12.6406V4.20312H314.549V17ZM321.062 17.1758C319.667 17.1758 318.53 16.748 317.651 15.8926C316.778 15.0371 316.342 13.8975 316.342 12.4736V12.2275C316.342 11.2725 316.526 10.4199 316.896 9.66992C317.265 8.91406 317.786 8.33398 318.46 7.92969C319.14 7.51953 319.913 7.31445 320.78 7.31445C322.081 7.31445 323.104 7.72461 323.848 8.54492C324.598 9.36523 324.973 10.5283 324.973 12.0342V13.0713H318.917C318.999 13.6924 319.245 14.1904 319.655 14.5654C320.071 14.9404 320.596 15.1279 321.229 15.1279C322.207 15.1279 322.972 14.7734 323.522 14.0645L324.771 15.4619C324.39 16.001 323.874 16.4229 323.224 16.7275C322.573 17.0264 321.853 17.1758 321.062 17.1758ZM320.771 9.37109C320.268 9.37109 319.857 9.54102 319.541 9.88086C319.23 10.2207 319.031 10.707 318.943 11.3398H322.477V11.1377C322.465 10.5752 322.312 10.1416 322.02 9.83691C321.727 9.52637 321.311 9.37109 320.771 9.37109ZM332.118 16.0332C331.491 16.7949 330.624 17.1758 329.517 17.1758C328.497 17.1758 327.718 16.8828 327.179 16.2969C326.646 15.7109 326.373 14.8525 326.361 13.7217V7.49023H328.901V13.6338C328.901 14.624 329.353 15.1191 330.255 15.1191C331.116 15.1191 331.708 14.8203 332.03 14.2227V7.49023H334.579V17H332.188L332.118 16.0332ZM339.536 5.15234V7.49023H341.162V9.35352H339.536V14.0996C339.536 14.4512 339.604 14.7031 339.738 14.8555C339.873 15.0078 340.131 15.084 340.512 15.084C340.793 15.084 341.042 15.0635 341.259 15.0225V16.9473C340.761 17.0996 340.248 17.1758 339.721 17.1758C337.939 17.1758 337.031 16.2764 336.996 14.4775V9.35352H335.607V7.49023H336.996V5.15234H339.536ZM347.921 9.87207C347.575 9.8252 347.271 9.80176 347.007 9.80176C346.046 9.80176 345.416 10.127 345.117 10.7773V17H342.577V7.49023H344.977L345.047 8.62402C345.557 7.75098 346.263 7.31445 347.165 7.31445C347.446 7.31445 347.71 7.35254 347.956 7.42871L347.921 9.87207ZM354.398 17C354.281 16.7715 354.196 16.4873 354.144 16.1475C353.528 16.833 352.729 17.1758 351.744 17.1758C350.812 17.1758 350.039 16.9062 349.424 16.3672C348.814 15.8281 348.51 15.1484 348.51 14.3281C348.51 13.3203 348.882 12.5469 349.626 12.0078C350.376 11.4688 351.457 11.1963 352.869 11.1904H354.038V10.6455C354.038 10.2061 353.924 9.85449 353.695 9.59082C353.473 9.32715 353.118 9.19531 352.632 9.19531C352.204 9.19531 351.867 9.29785 351.621 9.50293C351.381 9.70801 351.261 9.98926 351.261 10.3467H348.721C348.721 9.7959 348.891 9.28613 349.23 8.81738C349.57 8.34863 350.051 7.98242 350.672 7.71875C351.293 7.44922 351.99 7.31445 352.764 7.31445C353.936 7.31445 354.864 7.61035 355.55 8.20215C356.241 8.78809 356.587 9.61426 356.587 10.6807V14.8027C356.593 15.7051 356.719 16.3877 356.965 16.8506V17H354.398ZM352.298 15.2334C352.673 15.2334 353.019 15.1514 353.335 14.9873C353.651 14.8174 353.886 14.5918 354.038 14.3105V12.6758H353.089C351.817 12.6758 351.141 13.1152 351.059 13.9941L351.05 14.1436C351.05 14.46 351.161 14.7207 351.384 14.9258C351.606 15.1309 351.911 15.2334 352.298 15.2334ZM361.219 17H358.67V3.5H361.219V17Z" fill="#929292"/>
<path d="M311.907 33H310.178L305.741 25.9385V33H304.012V23.0469H305.741L310.191 30.1357V23.0469H311.907V33ZM313.479 29.2334C313.479 28.5088 313.623 27.8571 313.91 27.2783C314.197 26.695 314.601 26.2484 315.12 25.9385C315.64 25.624 316.237 25.4668 316.911 25.4668C317.909 25.4668 318.718 25.7881 319.338 26.4307C319.962 27.0732 320.299 27.9255 320.35 28.9873L320.356 29.377C320.356 30.1061 320.215 30.7578 319.933 31.332C319.655 31.9062 319.254 32.3506 318.729 32.665C318.21 32.9795 317.608 33.1367 316.925 33.1367C315.881 33.1367 315.045 32.7904 314.416 32.0977C313.792 31.4004 313.479 30.473 313.479 29.3154V29.2334ZM315.141 29.377C315.141 30.138 315.298 30.735 315.612 31.168C315.927 31.5964 316.364 31.8105 316.925 31.8105C317.485 31.8105 317.921 31.5918 318.23 31.1543C318.545 30.7168 318.702 30.0765 318.702 29.2334C318.702 28.486 318.54 27.8936 318.217 27.4561C317.898 27.0186 317.463 26.7998 316.911 26.7998C316.369 26.7998 315.938 27.0163 315.619 27.4492C315.3 27.8776 315.141 28.5202 315.141 29.377ZM327.015 33H325.354V25.6035H327.015V33ZM325.251 23.6826C325.251 23.4274 325.331 23.2155 325.49 23.0469C325.654 22.8783 325.887 22.7939 326.188 22.7939C326.488 22.7939 326.721 22.8783 326.885 23.0469C327.049 23.2155 327.131 23.4274 327.131 23.6826C327.131 23.9333 327.049 24.1429 326.885 24.3115C326.721 24.4756 326.488 24.5576 326.188 24.5576C325.887 24.5576 325.654 24.4756 325.49 24.3115C325.331 24.1429 325.251 23.9333 325.251 23.6826ZM330.392 25.6035L330.439 26.376C330.959 25.7699 331.67 25.4668 332.572 25.4668C333.561 25.4668 334.238 25.8451 334.603 26.6016C335.14 25.8451 335.897 25.4668 336.872 25.4668C337.688 25.4668 338.294 25.6924 338.69 26.1436C339.091 26.5947 339.297 27.2601 339.306 28.1396V33H337.645V28.1875C337.645 27.7181 337.542 27.374 337.337 27.1553C337.132 26.9365 336.792 26.8271 336.318 26.8271C335.94 26.8271 335.63 26.9297 335.389 27.1348C335.152 27.3353 334.985 27.5996 334.89 27.9277L334.896 33H333.235V28.1328C333.213 27.2624 332.768 26.8271 331.902 26.8271C331.237 26.8271 330.765 27.0983 330.487 27.6406V33H328.826V25.6035H330.392ZM347.488 29.377C347.488 30.5208 347.229 31.4346 346.709 32.1182C346.189 32.7972 345.492 33.1367 344.617 33.1367C343.806 33.1367 343.157 32.8701 342.669 32.3369V35.8438H341.008V25.6035H342.539L342.607 26.3555C343.095 25.763 343.758 25.4668 344.597 25.4668C345.499 25.4668 346.205 25.804 346.716 26.4785C347.231 27.1484 347.488 28.0804 347.488 29.2744V29.377ZM345.834 29.2334C345.834 28.4951 345.686 27.9095 345.39 27.4766C345.098 27.0436 344.679 26.8271 344.132 26.8271C343.453 26.8271 342.965 27.1074 342.669 27.668V30.9492C342.97 31.5234 343.462 31.8105 344.146 31.8105C344.674 31.8105 345.087 31.5986 345.383 31.1748C345.684 30.7464 345.834 30.0993 345.834 29.2334ZM352.772 27.1211C352.554 27.0846 352.328 27.0664 352.096 27.0664C351.335 27.0664 350.822 27.3581 350.558 27.9414V33H348.896V25.6035H350.482L350.523 26.4307C350.924 25.7881 351.48 25.4668 352.191 25.4668C352.428 25.4668 352.624 25.4987 352.779 25.5625L352.772 27.1211ZM353.265 29.2334C353.265 28.5088 353.408 27.8571 353.695 27.2783C353.982 26.695 354.386 26.2484 354.905 25.9385C355.425 25.624 356.022 25.4668 356.696 25.4668C357.694 25.4668 358.503 25.7881 359.123 26.4307C359.747 27.0732 360.085 27.9255 360.135 28.9873L360.142 29.377C360.142 30.1061 360 30.7578 359.718 31.332C359.44 31.9062 359.039 32.3506 358.515 32.665C357.995 32.9795 357.394 33.1367 356.71 33.1367C355.666 33.1367 354.83 32.7904 354.201 32.0977C353.577 31.4004 353.265 30.473 353.265 29.3154V29.2334ZM354.926 29.377C354.926 30.138 355.083 30.735 355.397 31.168C355.712 31.5964 356.149 31.8105 356.71 31.8105C357.271 31.8105 357.706 31.5918 358.016 31.1543C358.33 30.7168 358.487 30.0765 358.487 29.2334C358.487 28.486 358.326 27.8936 358.002 27.4561C357.683 27.0186 357.248 26.7998 356.696 26.7998C356.154 26.7998 355.723 27.0163 355.404 27.4492C355.085 27.8776 354.926 28.5202 354.926 29.377ZM364.045 30.8945L365.61 25.6035H367.326L364.763 33H363.32L360.736 25.6035H362.459L364.045 30.8945ZM371.53 33.1367C370.478 33.1367 369.623 32.8063 368.967 32.1455C368.315 31.4801 367.989 30.596 367.989 29.4932V29.2881C367.989 28.5498 368.131 27.8913 368.413 27.3125C368.7 26.7292 369.101 26.2757 369.616 25.9521C370.131 25.6286 370.705 25.4668 371.339 25.4668C372.346 25.4668 373.123 25.7881 373.67 26.4307C374.221 27.0732 374.497 27.9824 374.497 29.1582V29.8281H369.664C369.714 30.4388 369.917 30.9219 370.272 31.2773C370.632 31.6328 371.084 31.8105 371.626 31.8105C372.387 31.8105 373.007 31.5029 373.485 30.8877L374.381 31.7422C374.085 32.1842 373.688 32.5283 373.191 32.7744C372.699 33.016 372.146 33.1367 371.53 33.1367ZM371.332 26.7998C370.876 26.7998 370.507 26.9593 370.225 27.2783C369.947 27.5973 369.769 28.0417 369.691 28.6113H372.856V28.4883C372.82 27.9323 372.672 27.513 372.412 27.2305C372.152 26.9434 371.792 26.7998 371.332 26.7998ZM377.354 25.6035L377.402 26.376C377.922 25.7699 378.633 25.4668 379.535 25.4668C380.524 25.4668 381.201 25.8451 381.565 26.6016C382.103 25.8451 382.86 25.4668 383.835 25.4668C384.651 25.4668 385.257 25.6924 385.653 26.1436C386.054 26.5947 386.259 27.2601 386.269 28.1396V33H384.607V28.1875C384.607 27.7181 384.505 27.374 384.3 27.1553C384.095 26.9365 383.755 26.8271 383.281 26.8271C382.903 26.8271 382.593 26.9297 382.352 27.1348C382.115 27.3353 381.948 27.5996 381.853 27.9277L381.859 33H380.198V28.1328C380.175 27.2624 379.731 26.8271 378.865 26.8271C378.2 26.8271 377.728 27.0983 377.45 27.6406V33H375.789V25.6035H377.354ZM391.231 33.1367C390.179 33.1367 389.324 32.8063 388.668 32.1455C388.016 31.4801 387.69 30.596 387.69 29.4932V29.2881C387.69 28.5498 387.832 27.8913 388.114 27.3125C388.401 26.7292 388.802 26.2757 389.317 25.9521C389.832 25.6286 390.407 25.4668 391.04 25.4668C392.047 25.4668 392.824 25.7881 393.371 26.4307C393.923 27.0732 394.198 27.9824 394.198 29.1582V29.8281H389.365C389.415 30.4388 389.618 30.9219 389.974 31.2773C390.334 31.6328 390.785 31.8105 391.327 31.8105C392.088 31.8105 392.708 31.5029 393.187 30.8877L394.082 31.7422C393.786 32.1842 393.389 32.5283 392.893 32.7744C392.4 33.016 391.847 33.1367 391.231 33.1367ZM391.033 26.7998C390.577 26.7998 390.208 26.9593 389.926 27.2783C389.648 27.5973 389.47 28.0417 389.393 28.6113H392.558V28.4883C392.521 27.9323 392.373 27.513 392.113 27.2305C391.854 26.9434 391.493 26.7998 391.033 26.7998ZM397.035 25.6035L397.083 26.458C397.63 25.7972 398.348 25.4668 399.236 25.4668C400.777 25.4668 401.561 26.3486 401.588 28.1123V33H399.927V28.208C399.927 27.7386 399.824 27.3923 399.619 27.1689C399.419 26.9411 399.088 26.8271 398.628 26.8271C397.958 26.8271 397.459 27.1302 397.131 27.7363V33H395.47V25.6035H397.035ZM405.368 23.8057V25.6035H406.674V26.834H405.368V30.9629C405.368 31.2454 405.423 31.4505 405.532 31.5781C405.646 31.7012 405.847 31.7627 406.134 31.7627C406.325 31.7627 406.519 31.7399 406.715 31.6943V32.9795C406.337 33.0843 405.972 33.1367 405.621 33.1367C404.345 33.1367 403.707 32.4326 403.707 31.0244V26.834H402.49V25.6035H403.707V23.8057H405.368ZM411.124 29.2334C411.124 28.5088 411.268 27.8571 411.555 27.2783C411.842 26.695 412.245 26.2484 412.765 25.9385C413.284 25.624 413.881 25.4668 414.556 25.4668C415.554 25.4668 416.363 25.7881 416.982 26.4307C417.607 27.0732 417.944 27.9255 417.994 28.9873L418.001 29.377C418.001 30.1061 417.86 30.7578 417.577 31.332C417.299 31.9062 416.898 32.3506 416.374 32.665C415.854 32.9795 415.253 33.1367 414.569 33.1367C413.526 33.1367 412.689 32.7904 412.061 32.0977C411.436 31.4004 411.124 30.473 411.124 29.3154V29.2334ZM412.785 29.377C412.785 30.138 412.942 30.735 413.257 31.168C413.571 31.5964 414.009 31.8105 414.569 31.8105C415.13 31.8105 415.565 31.5918 415.875 31.1543C416.189 30.7168 416.347 30.0765 416.347 29.2334C416.347 28.486 416.185 27.8936 415.861 27.4561C415.542 27.0186 415.107 26.7998 414.556 26.7998C414.013 26.7998 413.583 27.0163 413.264 27.4492C412.945 27.8776 412.785 28.5202 412.785 29.377ZM419.99 33V26.834H418.862V25.6035H419.99V24.9268C419.99 24.1064 420.218 23.473 420.674 23.0264C421.13 22.5798 421.768 22.3564 422.588 22.3564C422.88 22.3564 423.189 22.3975 423.518 22.4795L423.477 23.7783C423.294 23.7419 423.082 23.7236 422.841 23.7236C422.048 23.7236 421.651 24.1315 421.651 24.9473V25.6035H423.155V26.834H421.651V33H419.99ZM429.492 26.4102C430.035 25.7812 430.72 25.4668 431.55 25.4668C433.127 25.4668 433.926 26.3669 433.949 28.167V33H432.288V28.2285C432.288 27.7181 432.176 27.3581 431.953 27.1484C431.734 26.9342 431.411 26.8271 430.982 26.8271C430.317 26.8271 429.82 27.1234 429.492 27.7158V33H427.831V22.5H429.492V26.4102ZM438.892 33.1367C437.839 33.1367 436.984 32.8063 436.328 32.1455C435.676 31.4801 435.351 30.596 435.351 29.4932V29.2881C435.351 28.5498 435.492 27.8913 435.774 27.3125C436.062 26.7292 436.463 26.2757 436.978 25.9521C437.493 25.6286 438.067 25.4668 438.7 25.4668C439.707 25.4668 440.484 25.7881 441.031 26.4307C441.583 27.0732 441.858 27.9824 441.858 29.1582V29.8281H437.025C437.076 30.4388 437.278 30.9219 437.634 31.2773C437.994 31.6328 438.445 31.8105 438.987 31.8105C439.748 31.8105 440.368 31.5029 440.847 30.8877L441.742 31.7422C441.446 32.1842 441.049 32.5283 440.553 32.7744C440.061 33.016 439.507 33.1367 438.892 33.1367ZM438.693 26.7998C438.238 26.7998 437.868 26.9593 437.586 27.2783C437.308 27.5973 437.13 28.0417 437.053 28.6113H440.218V28.4883C440.181 27.9323 440.033 27.513 439.773 27.2305C439.514 26.9434 439.154 26.7998 438.693 26.7998ZM447.573 33C447.5 32.8587 447.437 32.6286 447.382 32.3096C446.853 32.861 446.206 33.1367 445.44 33.1367C444.698 33.1367 444.091 32.9248 443.622 32.501C443.153 32.0771 442.918 31.5531 442.918 30.9287C442.918 30.1403 443.21 29.5365 443.793 29.1172C444.381 28.6934 445.219 28.4814 446.309 28.4814H447.327V27.9961C447.327 27.6133 447.22 27.3079 447.006 27.0801C446.792 26.8477 446.466 26.7314 446.028 26.7314C445.65 26.7314 445.34 26.8271 445.099 27.0186C444.857 27.2054 444.736 27.4447 444.736 27.7363H443.075C443.075 27.3307 443.21 26.9525 443.479 26.6016C443.747 26.2461 444.112 25.9681 444.572 25.7676C445.037 25.5671 445.554 25.4668 446.124 25.4668C446.99 25.4668 447.68 25.6855 448.195 26.123C448.71 26.556 448.975 27.1667 448.988 27.9551V31.291C448.988 31.9564 449.082 32.4873 449.269 32.8838V33H447.573ZM445.748 31.8037C446.076 31.8037 446.384 31.724 446.671 31.5645C446.963 31.4049 447.181 31.1908 447.327 30.9219V29.5273H446.432C445.816 29.5273 445.354 29.6344 445.044 29.8486C444.734 30.0628 444.579 30.3659 444.579 30.7578C444.579 31.0768 444.684 31.332 444.894 31.5234C445.108 31.7103 445.393 31.8037 445.748 31.8037ZM452.495 33H450.834V22.5H452.495V33ZM456.392 23.8057V25.6035H457.697V26.834H456.392V30.9629C456.392 31.2454 456.446 31.4505 456.556 31.5781C456.67 31.7012 456.87 31.7627 457.157 31.7627C457.349 31.7627 457.542 31.7399 457.738 31.6943V32.9795C457.36 33.0843 456.995 33.1367 456.645 33.1367C455.368 33.1367 454.73 32.4326 454.73 31.0244V26.834H453.514V25.6035H454.73V23.8057H456.392ZM460.609 26.4102C461.152 25.7812 461.838 25.4668 462.667 25.4668C464.244 25.4668 465.044 26.3669 465.066 28.167V33H463.405V28.2285C463.405 27.7181 463.294 27.3581 463.07 27.1484C462.852 26.9342 462.528 26.8271 462.1 26.8271C461.434 26.8271 460.938 27.1234 460.609 27.7158V33H458.948V22.5H460.609V26.4102ZM473.276 31.8105C473.691 31.8105 474.035 31.6898 474.309 31.4482C474.582 31.2067 474.728 30.9082 474.746 30.5527H476.312C476.293 31.013 476.15 31.4437 475.881 31.8447C475.612 32.2412 475.247 32.5557 474.787 32.7881C474.327 33.0205 473.83 33.1367 473.297 33.1367C472.262 33.1367 471.442 32.8018 470.836 32.1318C470.23 31.4619 469.927 30.5368 469.927 29.3564V29.1855C469.927 28.0599 470.228 27.1598 470.829 26.4854C471.431 25.8063 472.251 25.4668 473.29 25.4668C474.17 25.4668 474.885 25.7243 475.437 26.2393C475.993 26.7497 476.284 27.4219 476.312 28.2559H474.746C474.728 27.832 474.582 27.4834 474.309 27.21C474.04 26.9365 473.696 26.7998 473.276 26.7998C472.739 26.7998 472.324 26.9958 472.032 27.3877C471.741 27.7751 471.592 28.3652 471.588 29.1582V29.4248C471.588 30.2269 471.731 30.8262 472.019 31.2227C472.31 31.6146 472.729 31.8105 473.276 31.8105ZM477.255 29.2334C477.255 28.5088 477.398 27.8571 477.686 27.2783C477.973 26.695 478.376 26.2484 478.896 25.9385C479.415 25.624 480.012 25.4668 480.687 25.4668C481.685 25.4668 482.493 25.7881 483.113 26.4307C483.738 27.0732 484.075 27.9255 484.125 28.9873L484.132 29.377C484.132 30.1061 483.991 30.7578 483.708 31.332C483.43 31.9062 483.029 32.3506 482.505 32.665C481.985 32.9795 481.384 33.1367 480.7 33.1367C479.657 33.1367 478.82 32.7904 478.191 32.0977C477.567 31.4004 477.255 30.473 477.255 29.3154V29.2334ZM478.916 29.377C478.916 30.138 479.073 30.735 479.388 31.168C479.702 31.5964 480.14 31.8105 480.7 31.8105C481.261 31.8105 481.696 31.5918 482.006 31.1543C482.32 30.7168 482.478 30.0765 482.478 29.2334C482.478 28.486 482.316 27.8936 481.992 27.4561C481.673 27.0186 481.238 26.7998 480.687 26.7998C480.144 26.7998 479.714 27.0163 479.395 27.4492C479.076 27.8776 478.916 28.5202 478.916 29.377ZM487.078 25.6035L487.126 26.458C487.673 25.7972 488.391 25.4668 489.279 25.4668C490.82 25.4668 491.604 26.3486 491.631 28.1123V33H489.97V28.208C489.97 27.7386 489.867 27.3923 489.662 27.1689C489.462 26.9411 489.131 26.8271 488.671 26.8271C488.001 26.8271 487.502 27.1302 487.174 27.7363V33H485.513V25.6035H487.078ZM493.019 29.2471C493.019 28.1077 493.283 27.194 493.812 26.5059C494.34 25.8132 495.049 25.4668 495.938 25.4668C496.721 25.4668 497.355 25.7402 497.838 26.2871V22.5H499.499V33H497.995L497.913 32.2344C497.416 32.8359 496.753 33.1367 495.924 33.1367C495.058 33.1367 494.356 32.7881 493.818 32.0908C493.285 31.3936 493.019 30.4456 493.019 29.2471ZM494.68 29.3906C494.68 30.1426 494.823 30.7305 495.11 31.1543C495.402 31.5736 495.814 31.7832 496.348 31.7832C497.027 31.7832 497.523 31.4801 497.838 30.874V27.7158C497.533 27.1234 497.04 26.8271 496.361 26.8271C495.824 26.8271 495.409 27.0413 495.117 27.4697C494.826 27.8936 494.68 28.5339 494.68 29.3906ZM502.999 33H501.338V25.6035H502.999V33ZM501.235 23.6826C501.235 23.4274 501.315 23.2155 501.475 23.0469C501.639 22.8783 501.871 22.7939 502.172 22.7939C502.473 22.7939 502.705 22.8783 502.869 23.0469C503.033 23.2155 503.115 23.4274 503.115 23.6826C503.115 23.9333 503.033 24.1429 502.869 24.3115C502.705 24.4756 502.473 24.5576 502.172 24.5576C501.871 24.5576 501.639 24.4756 501.475 24.3115C501.315 24.1429 501.235 23.9333 501.235 23.6826ZM506.896 23.8057V25.6035H508.201V26.834H506.896V30.9629C506.896 31.2454 506.95 31.4505 507.06 31.5781C507.174 31.7012 507.374 31.7627 507.661 31.7627C507.853 31.7627 508.046 31.7399 508.242 31.6943V32.9795C507.864 33.0843 507.499 33.1367 507.148 33.1367C505.872 33.1367 505.234 32.4326 505.234 31.0244V26.834H504.018V25.6035H505.234V23.8057H506.896ZM511.243 33H509.582V25.6035H511.243V33ZM509.479 23.6826C509.479 23.4274 509.559 23.2155 509.719 23.0469C509.883 22.8783 510.115 22.7939 510.416 22.7939C510.717 22.7939 510.949 22.8783 511.113 23.0469C511.277 23.2155 511.359 23.4274 511.359 23.6826C511.359 23.9333 511.277 24.1429 511.113 24.3115C510.949 24.4756 510.717 24.5576 510.416 24.5576C510.115 24.5576 509.883 24.4756 509.719 24.3115C509.559 24.1429 509.479 23.9333 509.479 23.6826ZM512.747 29.2334C512.747 28.5088 512.891 27.8571 513.178 27.2783C513.465 26.695 513.868 26.2484 514.388 25.9385C514.907 25.624 515.504 25.4668 516.179 25.4668C517.177 25.4668 517.986 25.7881 518.605 26.4307C519.23 27.0732 519.567 27.9255 519.617 28.9873L519.624 29.377C519.624 30.1061 519.483 30.7578 519.2 31.332C518.922 31.9062 518.521 32.3506 517.997 32.665C517.478 32.9795 516.876 33.1367 516.192 33.1367C515.149 33.1367 514.312 32.7904 513.684 32.0977C513.059 31.4004 512.747 30.473 512.747 29.3154V29.2334ZM514.408 29.377C514.408 30.138 514.565 30.735 514.88 31.168C515.194 31.5964 515.632 31.8105 516.192 31.8105C516.753 31.8105 517.188 31.5918 517.498 31.1543C517.812 30.7168 517.97 30.0765 517.97 29.2334C517.97 28.486 517.808 27.8936 517.484 27.4561C517.165 27.0186 516.73 26.7998 516.179 26.7998C515.636 26.7998 515.206 27.0163 514.887 27.4492C514.568 27.8776 514.408 28.5202 514.408 29.377ZM522.57 25.6035L522.618 26.458C523.165 25.7972 523.883 25.4668 524.771 25.4668C526.312 25.4668 527.096 26.3486 527.123 28.1123V33H525.462V28.208C525.462 27.7386 525.359 27.3923 525.154 27.1689C524.954 26.9411 524.623 26.8271 524.163 26.8271C523.493 26.8271 522.994 27.1302 522.666 27.7363V33H521.005V25.6035H522.57Z" fill="#929292"/>
<path d="M311.606 75.7598C311.506 76.8216 311.114 77.651 310.431 78.248C309.747 78.8405 308.838 79.1367 307.703 79.1367C306.91 79.1367 306.211 78.9499 305.604 78.5762C305.003 78.1979 304.538 77.6624 304.21 76.9697C303.882 76.277 303.711 75.4727 303.697 74.5566V73.627C303.697 72.6882 303.864 71.861 304.196 71.1455C304.529 70.43 305.005 69.8786 305.625 69.4912C306.249 69.1038 306.969 68.9102 307.785 68.9102C308.883 68.9102 309.768 69.2087 310.438 69.8057C311.107 70.4027 311.497 71.2458 311.606 72.335H309.884C309.802 71.6195 309.592 71.1045 309.255 70.79C308.922 70.471 308.432 70.3115 307.785 70.3115C307.033 70.3115 306.454 70.5872 306.049 71.1387C305.648 71.6855 305.443 72.4899 305.434 73.5518V74.4336C305.434 75.5091 305.625 76.3294 306.008 76.8945C306.395 77.4596 306.96 77.7422 307.703 77.7422C308.382 77.7422 308.893 77.5895 309.234 77.2842C309.576 76.9788 309.793 76.4707 309.884 75.7598H311.606ZM317.479 78.2754C316.991 78.8496 316.298 79.1367 315.4 79.1367C314.598 79.1367 313.99 78.902 313.575 78.4326C313.165 77.9632 312.96 77.2842 312.96 76.3955V71.6035H314.621V76.375C314.621 77.3138 315.011 77.7832 315.79 77.7832C316.597 77.7832 317.141 77.4938 317.424 76.915V71.6035H319.085V79H317.52L317.479 78.2754ZM324.649 73.1211C324.431 73.0846 324.205 73.0664 323.973 73.0664C323.212 73.0664 322.699 73.3581 322.435 73.9414V79H320.773V71.6035H322.359L322.4 72.4307C322.801 71.7881 323.357 71.4668 324.068 71.4668C324.305 71.4668 324.501 71.4987 324.656 71.5625L324.649 73.1211ZM329.571 73.1211C329.353 73.0846 329.127 73.0664 328.895 73.0664C328.133 73.0664 327.621 73.3581 327.356 73.9414V79H325.695V71.6035H327.281L327.322 72.4307C327.723 71.7881 328.279 71.4668 328.99 71.4668C329.227 71.4668 329.423 71.4987 329.578 71.5625L329.571 73.1211ZM333.741 79.1367C332.688 79.1367 331.834 78.8063 331.178 78.1455C330.526 77.4801 330.2 76.596 330.2 75.4932V75.2881C330.2 74.5498 330.341 73.8913 330.624 73.3125C330.911 72.7292 331.312 72.2757 331.827 71.9521C332.342 71.6286 332.916 71.4668 333.55 71.4668C334.557 71.4668 335.334 71.7881 335.881 72.4307C336.432 73.0732 336.708 73.9824 336.708 75.1582V75.8281H331.875C331.925 76.4388 332.128 76.9219 332.483 77.2773C332.843 77.6328 333.295 77.8105 333.837 77.8105C334.598 77.8105 335.218 77.5029 335.696 76.8877L336.592 77.7422C336.296 78.1842 335.899 78.5283 335.402 78.7744C334.91 79.016 334.356 79.1367 333.741 79.1367ZM333.543 72.7998C333.087 72.7998 332.718 72.9593 332.436 73.2783C332.158 73.5973 331.98 74.0417 331.902 74.6113H335.067V74.4883C335.031 73.9323 334.883 73.513 334.623 73.2305C334.363 72.9434 334.003 72.7998 333.543 72.7998ZM339.545 71.6035L339.593 72.458C340.14 71.7972 340.857 71.4668 341.746 71.4668C343.286 71.4668 344.07 72.3486 344.098 74.1123V79H342.437V74.208C342.437 73.7386 342.334 73.3923 342.129 73.1689C341.928 72.9411 341.598 72.8271 341.138 72.8271C340.468 72.8271 339.969 73.1302 339.641 73.7363V79H337.979V71.6035H339.545ZM347.878 69.8057V71.6035H349.184V72.834H347.878V76.9629C347.878 77.2454 347.933 77.4505 348.042 77.5781C348.156 77.7012 348.356 77.7627 348.644 77.7627C348.835 77.7627 349.029 77.7399 349.225 77.6943V78.9795C348.846 79.0843 348.482 79.1367 348.131 79.1367C346.855 79.1367 346.217 78.4326 346.217 77.0244V72.834H345V71.6035H346.217V69.8057H347.878ZM358.091 76.9902C358.091 76.694 357.968 76.4684 357.722 76.3135C357.48 76.1585 357.077 76.0218 356.512 75.9033C355.947 75.7848 355.475 75.6344 355.097 75.4521C354.267 75.0511 353.853 74.4701 353.853 73.709C353.853 73.071 354.121 72.5378 354.659 72.1094C355.197 71.681 355.881 71.4668 356.71 71.4668C357.594 71.4668 358.307 71.6855 358.85 72.123C359.396 72.5605 359.67 73.1279 359.67 73.8252H358.009C358.009 73.5062 357.89 73.2419 357.653 73.0322C357.416 72.818 357.102 72.7109 356.71 72.7109C356.345 72.7109 356.047 72.7952 355.814 72.9639C355.587 73.1325 355.473 73.3581 355.473 73.6406C355.473 73.8958 355.58 74.0941 355.794 74.2354C356.008 74.3766 356.441 74.5202 357.093 74.666C357.744 74.8073 358.255 74.9782 358.624 75.1787C358.998 75.3747 359.273 75.6117 359.451 75.8896C359.633 76.1676 359.725 76.5049 359.725 76.9014C359.725 77.5667 359.449 78.1068 358.897 78.5215C358.346 78.9316 357.624 79.1367 356.73 79.1367C356.124 79.1367 355.584 79.0273 355.11 78.8086C354.636 78.5898 354.267 78.2891 354.003 77.9062C353.739 77.5234 353.606 77.111 353.606 76.6689H355.22C355.243 77.0609 355.391 77.3639 355.664 77.5781C355.938 77.7878 356.3 77.8926 356.751 77.8926C357.188 77.8926 357.521 77.8105 357.749 77.6465C357.977 77.4779 358.091 77.2591 358.091 76.9902ZM363.259 69.8057V71.6035H364.564V72.834H363.259V76.9629C363.259 77.2454 363.313 77.4505 363.423 77.5781C363.537 77.7012 363.737 77.7627 364.024 77.7627C364.216 77.7627 364.41 77.7399 364.605 77.6943V78.9795C364.227 79.0843 363.863 79.1367 363.512 79.1367C362.236 79.1367 361.598 78.4326 361.598 77.0244V72.834H360.381V71.6035H361.598V69.8057H363.259ZM370.259 79C370.186 78.8587 370.122 78.6286 370.067 78.3096C369.539 78.861 368.892 79.1367 368.126 79.1367C367.383 79.1367 366.777 78.9248 366.308 78.501C365.838 78.0771 365.604 77.5531 365.604 76.9287C365.604 76.1403 365.895 75.5365 366.479 75.1172C367.066 74.6934 367.905 74.4814 368.994 74.4814H370.013V73.9961C370.013 73.6133 369.906 73.3079 369.691 73.0801C369.477 72.8477 369.151 72.7314 368.714 72.7314C368.336 72.7314 368.026 72.8271 367.784 73.0186C367.543 73.2054 367.422 73.4447 367.422 73.7363H365.761C365.761 73.3307 365.895 72.9525 366.164 72.6016C366.433 72.2461 366.798 71.9681 367.258 71.7676C367.723 71.5671 368.24 71.4668 368.81 71.4668C369.675 71.4668 370.366 71.6855 370.881 72.123C371.396 72.556 371.66 73.1667 371.674 73.9551V77.291C371.674 77.9564 371.767 78.4873 371.954 78.8838V79H370.259ZM368.434 77.8037C368.762 77.8037 369.069 77.724 369.356 77.5645C369.648 77.4049 369.867 77.1908 370.013 76.9219V75.5273H369.117C368.502 75.5273 368.039 75.6344 367.729 75.8486C367.42 76.0628 367.265 76.3659 367.265 76.7578C367.265 77.0768 367.369 77.332 367.579 77.5234C367.793 77.7103 368.078 77.8037 368.434 77.8037ZM375.495 69.8057V71.6035H376.801V72.834H375.495V76.9629C375.495 77.2454 375.55 77.4505 375.659 77.5781C375.773 77.7012 375.974 77.7627 376.261 77.7627C376.452 77.7627 376.646 77.7399 376.842 77.6943V78.9795C376.464 79.0843 376.099 79.1367 375.748 79.1367C374.472 79.1367 373.834 78.4326 373.834 77.0244V72.834H372.617V71.6035H373.834V69.8057H375.495ZM381.333 79.1367C380.28 79.1367 379.426 78.8063 378.77 78.1455C378.118 77.4801 377.792 76.596 377.792 75.4932V75.2881C377.792 74.5498 377.933 73.8913 378.216 73.3125C378.503 72.7292 378.904 72.2757 379.419 71.9521C379.934 71.6286 380.508 71.4668 381.142 71.4668C382.149 71.4668 382.926 71.7881 383.473 72.4307C384.024 73.0732 384.3 73.9824 384.3 75.1582V75.8281H379.467C379.517 76.4388 379.72 76.9219 380.075 77.2773C380.435 77.6328 380.886 77.8105 381.429 77.8105C382.19 77.8105 382.81 77.5029 383.288 76.8877L384.184 77.7422C383.887 78.1842 383.491 78.5283 382.994 78.7744C382.502 79.016 381.948 79.1367 381.333 79.1367ZM381.135 72.7998C380.679 72.7998 380.31 72.9593 380.027 73.2783C379.749 73.5973 379.572 74.0417 379.494 74.6113H382.659V74.4883C382.623 73.9323 382.475 73.513 382.215 73.2305C381.955 72.9434 381.595 72.7998 381.135 72.7998ZM388.771 75.2334C388.771 74.5088 388.914 73.8571 389.201 73.2783C389.488 72.695 389.892 72.2484 390.411 71.9385C390.931 71.624 391.528 71.4668 392.202 71.4668C393.2 71.4668 394.009 71.7881 394.629 72.4307C395.253 73.0732 395.59 73.9255 395.641 74.9873L395.647 75.377C395.647 76.1061 395.506 76.7578 395.224 77.332C394.946 77.9062 394.545 78.3506 394.021 78.665C393.501 78.9795 392.899 79.1367 392.216 79.1367C391.172 79.1367 390.336 78.7904 389.707 78.0977C389.083 77.4004 388.771 76.473 388.771 75.3154V75.2334ZM390.432 75.377C390.432 76.138 390.589 76.735 390.903 77.168C391.218 77.5964 391.655 77.8105 392.216 77.8105C392.776 77.8105 393.212 77.5918 393.521 77.1543C393.836 76.7168 393.993 76.0765 393.993 75.2334C393.993 74.486 393.831 73.8936 393.508 73.4561C393.189 73.0186 392.754 72.7998 392.202 72.7998C391.66 72.7998 391.229 73.0163 390.91 73.4492C390.591 73.8776 390.432 74.5202 390.432 75.377ZM397.637 79V72.834H396.509V71.6035H397.637V70.9268C397.637 70.1064 397.865 69.473 398.32 69.0264C398.776 68.5798 399.414 68.3564 400.234 68.3564C400.526 68.3564 400.836 68.3975 401.164 68.4795L401.123 69.7783C400.941 69.7419 400.729 69.7236 400.487 69.7236C399.694 69.7236 399.298 70.1315 399.298 70.9473V71.6035H400.802V72.834H399.298V79H397.637ZM407.139 72.4102C407.681 71.7812 408.367 71.4668 409.196 71.4668C410.773 71.4668 411.573 72.3669 411.596 74.167V79H409.935V74.2285C409.935 73.7181 409.823 73.3581 409.6 73.1484C409.381 72.9342 409.057 72.8271 408.629 72.8271C407.964 72.8271 407.467 73.1234 407.139 73.7158V79H405.478V68.5H407.139V72.4102ZM416.538 79.1367C415.485 79.1367 414.631 78.8063 413.975 78.1455C413.323 77.4801 412.997 76.596 412.997 75.4932V75.2881C412.997 74.5498 413.138 73.8913 413.421 73.3125C413.708 72.7292 414.109 72.2757 414.624 71.9521C415.139 71.6286 415.713 71.4668 416.347 71.4668C417.354 71.4668 418.131 71.7881 418.678 72.4307C419.229 73.0732 419.505 73.9824 419.505 75.1582V75.8281H414.672C414.722 76.4388 414.925 76.9219 415.28 77.2773C415.64 77.6328 416.091 77.8105 416.634 77.8105C417.395 77.8105 418.015 77.5029 418.493 76.8877L419.389 77.7422C419.092 78.1842 418.696 78.5283 418.199 78.7744C417.707 79.016 417.153 79.1367 416.538 79.1367ZM416.34 72.7998C415.884 72.7998 415.515 72.9593 415.232 73.2783C414.954 73.5973 414.777 74.0417 414.699 74.6113H417.864V74.4883C417.828 73.9323 417.68 73.513 417.42 73.2305C417.16 72.9434 416.8 72.7998 416.34 72.7998ZM425.22 79C425.147 78.8587 425.083 78.6286 425.028 78.3096C424.5 78.861 423.853 79.1367 423.087 79.1367C422.344 79.1367 421.738 78.9248 421.269 78.501C420.799 78.0771 420.564 77.5531 420.564 76.9287C420.564 76.1403 420.856 75.5365 421.439 75.1172C422.027 74.6934 422.866 74.4814 423.955 74.4814H424.974V73.9961C424.974 73.6133 424.867 73.3079 424.652 73.0801C424.438 72.8477 424.112 72.7314 423.675 72.7314C423.297 72.7314 422.987 72.8271 422.745 73.0186C422.504 73.2054 422.383 73.4447 422.383 73.7363H420.722C420.722 73.3307 420.856 72.9525 421.125 72.6016C421.394 72.2461 421.758 71.9681 422.219 71.7676C422.684 71.5671 423.201 71.4668 423.771 71.4668C424.636 71.4668 425.327 71.6855 425.842 72.123C426.357 72.556 426.621 73.1667 426.635 73.9551V77.291C426.635 77.9564 426.728 78.4873 426.915 78.8838V79H425.22ZM423.395 77.8037C423.723 77.8037 424.03 77.724 424.317 77.5645C424.609 77.4049 424.828 77.1908 424.974 76.9219V75.5273H424.078C423.463 75.5273 423 75.6344 422.69 75.8486C422.381 76.0628 422.226 76.3659 422.226 76.7578C422.226 77.0768 422.33 77.332 422.54 77.5234C422.754 77.7103 423.039 77.8037 423.395 77.8037ZM430.142 79H428.48V68.5H430.142V79ZM434.038 69.8057V71.6035H435.344V72.834H434.038V76.9629C434.038 77.2454 434.093 77.4505 434.202 77.5781C434.316 77.7012 434.517 77.7627 434.804 77.7627C434.995 77.7627 435.189 77.7399 435.385 77.6943V78.9795C435.007 79.0843 434.642 79.1367 434.291 79.1367C433.015 79.1367 432.377 78.4326 432.377 77.0244V72.834H431.16V71.6035H432.377V69.8057H434.038ZM438.256 72.4102C438.798 71.7812 439.484 71.4668 440.313 71.4668C441.89 71.4668 442.69 72.3669 442.713 74.167V79H441.052V74.2285C441.052 73.7181 440.94 73.3581 440.717 73.1484C440.498 72.9342 440.174 72.8271 439.746 72.8271C439.081 72.8271 438.584 73.1234 438.256 73.7158V79H436.595V68.5H438.256V72.4102ZM450.923 77.8105C451.338 77.8105 451.682 77.6898 451.955 77.4482C452.229 77.2067 452.374 76.9082 452.393 76.5527H453.958C453.94 77.013 453.796 77.4437 453.527 77.8447C453.258 78.2412 452.894 78.5557 452.434 78.7881C451.973 79.0205 451.477 79.1367 450.943 79.1367C449.909 79.1367 449.089 78.8018 448.482 78.1318C447.876 77.4619 447.573 76.5368 447.573 75.3564V75.1855C447.573 74.0599 447.874 73.1598 448.476 72.4854C449.077 71.8063 449.897 71.4668 450.937 71.4668C451.816 71.4668 452.532 71.7243 453.083 72.2393C453.639 72.7497 453.931 73.4219 453.958 74.2559H452.393C452.374 73.832 452.229 73.4834 451.955 73.21C451.686 72.9365 451.342 72.7998 450.923 72.7998C450.385 72.7998 449.97 72.9958 449.679 73.3877C449.387 73.7751 449.239 74.3652 449.234 75.1582V75.4248C449.234 76.2269 449.378 76.8262 449.665 77.2227C449.957 77.6146 450.376 77.8105 450.923 77.8105ZM454.901 75.2334C454.901 74.5088 455.045 73.8571 455.332 73.2783C455.619 72.695 456.022 72.2484 456.542 71.9385C457.062 71.624 457.659 71.4668 458.333 71.4668C459.331 71.4668 460.14 71.7881 460.76 72.4307C461.384 73.0732 461.721 73.9255 461.771 74.9873L461.778 75.377C461.778 76.1061 461.637 76.7578 461.354 77.332C461.076 77.9062 460.675 78.3506 460.151 78.665C459.632 78.9795 459.03 79.1367 458.347 79.1367C457.303 79.1367 456.467 78.7904 455.838 78.0977C455.214 77.4004 454.901 76.473 454.901 75.3154V75.2334ZM456.562 75.377C456.562 76.138 456.72 76.735 457.034 77.168C457.349 77.5964 457.786 77.8105 458.347 77.8105C458.907 77.8105 459.342 77.5918 459.652 77.1543C459.967 76.7168 460.124 76.0765 460.124 75.2334C460.124 74.486 459.962 73.8936 459.639 73.4561C459.32 73.0186 458.884 72.7998 458.333 72.7998C457.791 72.7998 457.36 73.0163 457.041 73.4492C456.722 73.8776 456.562 74.5202 456.562 75.377ZM464.725 71.6035L464.772 72.458C465.319 71.7972 466.037 71.4668 466.926 71.4668C468.466 71.4668 469.25 72.3486 469.277 74.1123V79H467.616V74.208C467.616 73.7386 467.514 73.3923 467.309 73.1689C467.108 72.9411 466.778 72.8271 466.317 72.8271C465.647 72.8271 465.148 73.1302 464.82 73.7363V79H463.159V71.6035H464.725ZM470.665 75.2471C470.665 74.1077 470.929 73.194 471.458 72.5059C471.987 71.8132 472.695 71.4668 473.584 71.4668C474.368 71.4668 475.001 71.7402 475.484 72.2871V68.5H477.146V79H475.642L475.56 78.2344C475.063 78.8359 474.4 79.1367 473.57 79.1367C472.704 79.1367 472.003 78.7881 471.465 78.0908C470.932 77.3936 470.665 76.4456 470.665 75.2471ZM472.326 75.3906C472.326 76.1426 472.47 76.7305 472.757 77.1543C473.049 77.5736 473.461 77.7832 473.994 77.7832C474.673 77.7832 475.17 77.4801 475.484 76.874V73.7158C475.179 73.1234 474.687 72.8271 474.008 72.8271C473.47 72.8271 473.055 73.0413 472.764 73.4697C472.472 73.8936 472.326 74.5339 472.326 75.3906ZM480.646 79H478.984V71.6035H480.646V79ZM478.882 69.6826C478.882 69.4274 478.962 69.2155 479.121 69.0469C479.285 68.8783 479.518 68.7939 479.818 68.7939C480.119 68.7939 480.352 68.8783 480.516 69.0469C480.68 69.2155 480.762 69.4274 480.762 69.6826C480.762 69.9333 480.68 70.1429 480.516 70.3115C480.352 70.4756 480.119 70.5576 479.818 70.5576C479.518 70.5576 479.285 70.4756 479.121 70.3115C478.962 70.1429 478.882 69.9333 478.882 69.6826ZM484.542 69.8057V71.6035H485.848V72.834H484.542V76.9629C484.542 77.2454 484.597 77.4505 484.706 77.5781C484.82 77.7012 485.021 77.7627 485.308 77.7627C485.499 77.7627 485.693 77.7399 485.889 77.6943V78.9795C485.51 79.0843 485.146 79.1367 484.795 79.1367C483.519 79.1367 482.881 78.4326 482.881 77.0244V72.834H481.664V71.6035H482.881V69.8057H484.542ZM488.89 79H487.229V71.6035H488.89V79ZM487.126 69.6826C487.126 69.4274 487.206 69.2155 487.365 69.0469C487.529 68.8783 487.762 68.7939 488.062 68.7939C488.363 68.7939 488.596 68.8783 488.76 69.0469C488.924 69.2155 489.006 69.4274 489.006 69.6826C489.006 69.9333 488.924 70.1429 488.76 70.3115C488.596 70.4756 488.363 70.5576 488.062 70.5576C487.762 70.5576 487.529 70.4756 487.365 70.3115C487.206 70.1429 487.126 69.9333 487.126 69.6826ZM490.394 75.2334C490.394 74.5088 490.537 73.8571 490.824 73.2783C491.111 72.695 491.515 72.2484 492.034 71.9385C492.554 71.624 493.151 71.4668 493.825 71.4668C494.823 71.4668 495.632 71.7881 496.252 72.4307C496.876 73.0732 497.214 73.9255 497.264 74.9873L497.271 75.377C497.271 76.1061 497.129 76.7578 496.847 77.332C496.569 77.9062 496.168 78.3506 495.644 78.665C495.124 78.9795 494.522 79.1367 493.839 79.1367C492.795 79.1367 491.959 78.7904 491.33 78.0977C490.706 77.4004 490.394 76.473 490.394 75.3154V75.2334ZM492.055 75.377C492.055 76.138 492.212 76.735 492.526 77.168C492.841 77.5964 493.278 77.8105 493.839 77.8105C494.399 77.8105 494.835 77.5918 495.145 77.1543C495.459 76.7168 495.616 76.0765 495.616 75.2334C495.616 74.486 495.454 73.8936 495.131 73.4561C494.812 73.0186 494.377 72.7998 493.825 72.7998C493.283 72.7998 492.852 73.0163 492.533 73.4492C492.214 73.8776 492.055 74.5202 492.055 75.377ZM500.217 71.6035L500.265 72.458C500.812 71.7972 501.529 71.4668 502.418 71.4668C503.958 71.4668 504.742 72.3486 504.77 74.1123V79H503.108V74.208C503.108 73.7386 503.006 73.3923 502.801 73.1689C502.6 72.9411 502.27 72.8271 501.81 72.8271C501.14 72.8271 500.641 73.1302 500.312 73.7363V79H498.651V71.6035H500.217Z" fill="#4C88FD"/>
<rect x="262" y="2" width="34" height="34" rx="5" fill="#929292"/>
<path d="M311.367 60.3633H306.744L305.865 63H303.062L307.825 50.2031H310.269L315.059 63H312.255L311.367 60.3633ZM307.456 58.2275H310.655L309.047 53.4375L307.456 58.2275ZM318.003 53.4902L318.082 54.5889C318.762 53.7393 319.673 53.3145 320.815 53.3145C321.823 53.3145 322.573 53.6104 323.065 54.2021C323.558 54.7939 323.81 55.6787 323.821 56.8564V63H321.281V56.918C321.281 56.3789 321.164 55.9893 320.93 55.749C320.695 55.5029 320.306 55.3799 319.761 55.3799C319.046 55.3799 318.51 55.6846 318.152 56.2939V63H315.612V53.4902H318.003ZM331.266 63C331.148 62.7715 331.063 62.4873 331.011 62.1475C330.396 62.833 329.596 63.1758 328.611 63.1758C327.68 63.1758 326.906 62.9062 326.291 62.3672C325.682 61.8281 325.377 61.1484 325.377 60.3281C325.377 59.3203 325.749 58.5469 326.493 58.0078C327.243 57.4688 328.324 57.1963 329.736 57.1904H330.905V56.6455C330.905 56.2061 330.791 55.8545 330.562 55.5908C330.34 55.3271 329.985 55.1953 329.499 55.1953C329.071 55.1953 328.734 55.2979 328.488 55.5029C328.248 55.708 328.128 55.9893 328.128 56.3467H325.588C325.588 55.7959 325.758 55.2861 326.098 54.8174C326.438 54.3486 326.918 53.9824 327.539 53.7188C328.16 53.4492 328.857 53.3145 329.631 53.3145C330.803 53.3145 331.731 53.6104 332.417 54.2021C333.108 54.7881 333.454 55.6143 333.454 56.6807V60.8027C333.46 61.7051 333.586 62.3877 333.832 62.8506V63H331.266ZM329.165 61.2334C329.54 61.2334 329.886 61.1514 330.202 60.9873C330.519 60.8174 330.753 60.5918 330.905 60.3105V58.6758H329.956C328.685 58.6758 328.008 59.1152 327.926 59.9941L327.917 60.1436C327.917 60.46 328.028 60.7207 328.251 60.9258C328.474 61.1309 328.778 61.2334 329.165 61.2334ZM337.787 53.4902L337.866 54.5537C338.54 53.7275 339.451 53.3145 340.6 53.3145C341.824 53.3145 342.665 53.7979 343.122 54.7646C343.79 53.7979 344.742 53.3145 345.979 53.3145C347.01 53.3145 347.777 53.6162 348.281 54.2197C348.785 54.8174 349.037 55.7197 349.037 56.9268V63H346.488V56.9355C346.488 56.3965 346.383 56.0039 346.172 55.7578C345.961 55.5059 345.589 55.3799 345.056 55.3799C344.294 55.3799 343.767 55.7432 343.474 56.4697L343.482 63H340.942V56.9443C340.942 56.3936 340.834 55.9951 340.617 55.749C340.4 55.5029 340.031 55.3799 339.51 55.3799C338.789 55.3799 338.268 55.6787 337.945 56.2764V63H335.405V53.4902H337.787ZM353.335 53.4902L353.414 54.5889C354.094 53.7393 355.005 53.3145 356.147 53.3145C357.155 53.3145 357.905 53.6104 358.397 54.2021C358.89 54.7939 359.142 55.6787 359.153 56.8564V63H356.613V56.918C356.613 56.3789 356.496 55.9893 356.262 55.749C356.027 55.5029 355.638 55.3799 355.093 55.3799C354.378 55.3799 353.842 55.6846 353.484 56.2939V63H350.944V53.4902H353.335ZM365.464 63.1758C364.069 63.1758 362.933 62.748 362.054 61.8926C361.181 61.0371 360.744 59.8975 360.744 58.4736V58.2275C360.744 57.2725 360.929 56.4199 361.298 55.6699C361.667 54.9141 362.188 54.334 362.862 53.9297C363.542 53.5195 364.315 53.3145 365.183 53.3145C366.483 53.3145 367.506 53.7246 368.25 54.5449C369 55.3652 369.375 56.5283 369.375 58.0342V59.0713H363.319C363.401 59.6924 363.647 60.1904 364.058 60.5654C364.474 60.9404 364.998 61.1279 365.631 61.1279C366.609 61.1279 367.374 60.7734 367.925 60.0645L369.173 61.4619C368.792 62.001 368.276 62.4229 367.626 62.7275C366.976 63.0264 366.255 63.1758 365.464 63.1758ZM365.174 55.3711C364.67 55.3711 364.26 55.541 363.943 55.8809C363.633 56.2207 363.434 56.707 363.346 57.3398H366.879V57.1377C366.867 56.5752 366.715 56.1416 366.422 55.8369C366.129 55.5264 365.713 55.3711 365.174 55.3711ZM375.976 60.3721C375.976 60.0615 375.82 59.8184 375.51 59.6426C375.205 59.4609 374.713 59.2998 374.033 59.1592C371.771 58.6846 370.641 57.7236 370.641 56.2764C370.641 55.4326 370.989 54.7295 371.687 54.167C372.39 53.5986 373.307 53.3145 374.438 53.3145C375.645 53.3145 376.608 53.5986 377.329 54.167C378.056 54.7354 378.419 55.4736 378.419 56.3818H375.879C375.879 56.0186 375.762 55.7197 375.527 55.4854C375.293 55.2451 374.927 55.125 374.429 55.125C374.001 55.125 373.67 55.2217 373.436 55.415C373.201 55.6084 373.084 55.8545 373.084 56.1533C373.084 56.4346 373.216 56.6631 373.479 56.8389C373.749 57.0088 374.2 57.1582 374.833 57.2871C375.466 57.4102 375.999 57.5508 376.433 57.709C377.774 58.2012 378.445 59.0537 378.445 60.2666C378.445 61.1338 378.073 61.8369 377.329 62.376C376.585 62.9092 375.624 63.1758 374.446 63.1758C373.649 63.1758 372.94 63.0352 372.319 62.7539C371.704 62.4668 371.221 62.0771 370.869 61.585C370.518 61.0869 370.342 60.5508 370.342 59.9766H372.75C372.773 60.4277 372.94 60.7734 373.251 61.0137C373.562 61.2539 373.978 61.374 374.499 61.374C374.985 61.374 375.352 61.2832 375.598 61.1016C375.85 60.9141 375.976 60.6709 375.976 60.3721ZM382.77 63H380.221V53.4902H382.77V63ZM380.071 51.0293C380.071 50.6484 380.197 50.335 380.449 50.0889C380.707 49.8428 381.056 49.7197 381.495 49.7197C381.929 49.7197 382.274 49.8428 382.532 50.0889C382.79 50.335 382.919 50.6484 382.919 51.0293C382.919 51.416 382.787 51.7324 382.523 51.9785C382.266 52.2246 381.923 52.3477 381.495 52.3477C381.067 52.3477 380.722 52.2246 380.458 51.9785C380.2 51.7324 380.071 51.416 380.071 51.0293ZM390.021 60.3721C390.021 60.0615 389.865 59.8184 389.555 59.6426C389.25 59.4609 388.758 59.2998 388.078 59.1592C385.816 58.6846 384.686 57.7236 384.686 56.2764C384.686 55.4326 385.034 54.7295 385.731 54.167C386.435 53.5986 387.352 53.3145 388.482 53.3145C389.689 53.3145 390.653 53.5986 391.374 54.167C392.101 54.7354 392.464 55.4736 392.464 56.3818H389.924C389.924 56.0186 389.807 55.7197 389.572 55.4854C389.338 55.2451 388.972 55.125 388.474 55.125C388.046 55.125 387.715 55.2217 387.48 55.415C387.246 55.6084 387.129 55.8545 387.129 56.1533C387.129 56.4346 387.261 56.6631 387.524 56.8389C387.794 57.0088 388.245 57.1582 388.878 57.2871C389.511 57.4102 390.044 57.5508 390.478 57.709C391.819 58.2012 392.49 59.0537 392.49 60.2666C392.49 61.1338 392.118 61.8369 391.374 62.376C390.63 62.9092 389.669 63.1758 388.491 63.1758C387.694 63.1758 386.985 63.0352 386.364 62.7539C385.749 62.4668 385.266 62.0771 384.914 61.585C384.562 61.0869 384.387 60.5508 384.387 59.9766H386.795C386.818 60.4277 386.985 60.7734 387.296 61.0137C387.606 61.2539 388.022 61.374 388.544 61.374C389.03 61.374 389.396 61.2832 389.643 61.1016C389.895 60.9141 390.021 60.6709 390.021 60.3721Z" fill="#4C88FD"/>
<rect x="262" y="48" width="34" height="34" rx="5" fill="#4C88FD"/>
<g clip-path="url(#clip1)">
<path d="M274.167 62.5C274.203 62.4743 274.23 62.4381 274.245 62.3964C274.26 62.3547 274.262 62.3094 274.25 62.2667C274.237 62.2234 274.211 62.1854 274.175 62.1583C274.139 62.1313 274.095 62.1167 274.05 62.1167H269.592C269.547 62.1167 269.503 62.1313 269.467 62.1583C269.431 62.1854 269.404 62.2234 269.392 62.2667C269.133 63.1548 269.001 64.075 269 65C269 65.1917 269 65.3917 269 65.5833C269.003 65.62 269.015 65.6553 269.036 65.6859C269.056 65.7166 269.084 65.7415 269.117 65.7583C269.149 65.7745 269.185 65.7829 269.221 65.7829C269.257 65.7829 269.293 65.7745 269.325 65.7583L274.167 62.5Z" fill="white"/>
<path d="M277.767 62.0833C277.728 62.075 277.688 62.075 277.65 62.0833L269.483 67.6583C269.451 67.6774 269.427 67.7071 269.415 67.7421C269.403 67.7771 269.403 67.8153 269.417 67.85C270.103 70.1515 271.594 72.1292 273.618 73.4217C275.642 74.7142 278.064 75.2351 280.44 74.8893C282.817 74.5434 284.989 73.3539 286.561 71.5381C288.133 69.7223 288.998 67.4015 289 65C289.002 64.0638 288.87 63.1322 288.608 62.2333C288.596 62.1901 288.569 62.1521 288.533 62.125C288.497 62.098 288.453 62.0833 288.408 62.0833H277.767ZM283.167 62.9167C283.496 62.9167 283.818 63.0144 284.093 63.1976C284.367 63.3807 284.58 63.641 284.706 63.9455C284.833 64.2501 284.866 64.5852 284.801 64.9085C284.737 65.2318 284.578 65.5288 284.345 65.7619C284.112 65.9949 283.815 66.1537 283.492 66.218C283.168 66.2823 282.833 66.2493 282.529 66.1231C282.224 65.997 281.964 65.7834 281.781 65.5093C281.598 65.2352 281.5 64.913 281.5 64.5833C281.5 64.1413 281.676 63.7174 281.988 63.4048C282.301 63.0923 282.725 62.9167 283.167 62.9167ZM274.967 70C275.404 69.3294 276.002 68.7786 276.707 68.3973C277.411 68.016 278.199 67.8163 279 67.8163C279.801 67.8163 280.589 68.016 281.293 68.3973C281.997 68.7786 282.595 69.3294 283.033 70C283.155 70.1857 283.198 70.412 283.152 70.6292C283.107 70.8465 282.977 71.0368 282.792 71.1583C282.606 71.2799 282.38 71.3227 282.162 71.2774C281.945 71.2321 281.755 71.1023 281.633 70.9167C281.349 70.4763 280.959 70.1143 280.499 69.8635C280.039 69.6128 279.524 69.4814 279 69.4814C278.476 69.4814 277.96 69.6128 277.5 69.8635C277.04 70.1143 276.651 70.4763 276.367 70.9167C276.245 71.1023 276.055 71.2321 275.837 71.2774C275.62 71.3227 275.394 71.2799 275.208 71.1583C275.023 71.0368 274.893 70.8465 274.848 70.6292C274.802 70.412 274.845 70.1857 274.967 70Z" fill="white"/>
<path d="M287.533 60.4167C287.57 60.4161 287.605 60.4066 287.637 60.3892C287.669 60.3718 287.697 60.3469 287.717 60.3167C287.735 60.285 287.745 60.2491 287.745 60.2125C287.745 60.1759 287.735 60.14 287.717 60.1083C287.474 59.6615 287.195 59.2352 286.883 58.8333C286.864 58.8079 286.838 58.7873 286.809 58.7728C286.781 58.7584 286.749 58.7506 286.717 58.75H271.3C271.268 58.7506 271.236 58.7584 271.207 58.7728C271.178 58.7873 271.153 58.8079 271.133 58.8333C270.822 59.2352 270.543 59.6615 270.3 60.1083C270.282 60.14 270.272 60.1759 270.272 60.2125C270.272 60.2491 270.282 60.285 270.3 60.3167C270.32 60.3469 270.347 60.3718 270.379 60.3892C270.411 60.4066 270.447 60.4161 270.483 60.4167H287.533Z" fill="white"/>
<path d="M284.458 57.0833C284.503 57.0833 284.547 57.0687 284.583 57.0417C284.619 57.0146 284.646 56.9766 284.658 56.9333C284.67 56.8906 284.668 56.8453 284.653 56.8036C284.638 56.7619 284.611 56.7257 284.575 56.7C282.93 55.588 280.991 54.991 279.005 54.9851C277.019 54.9792 275.077 55.5645 273.425 56.6667C273.389 56.6924 273.362 56.7285 273.347 56.7702C273.332 56.812 273.33 56.8572 273.342 56.9C273.354 56.9433 273.381 56.9813 273.417 57.0083C273.453 57.0354 273.497 57.05 273.542 57.05L284.458 57.0833Z" fill="white"/>
</g>
<g clip-path="url(#clip2)">
<path d="M279 9C277.022 9 275.089 9.58649 273.444 10.6853C271.8 11.7841 270.518 13.3459 269.761 15.1732C269.004 17.0004 268.806 19.0111 269.192 20.9509C269.578 22.8907 270.53 24.6725 271.929 26.0711C273.327 27.4696 275.109 28.422 277.049 28.8078C278.989 29.1937 281 28.9957 282.827 28.2388C284.654 27.4819 286.216 26.2002 287.315 24.5557C288.414 22.9112 289 20.9778 289 19C289 16.3478 287.946 13.8043 286.071 11.9289C284.196 10.0536 281.652 9 279 9V9ZM275.25 14.8333C275.58 14.8333 275.902 14.9311 276.176 15.1142C276.45 15.2974 276.664 15.5577 276.79 15.8622C276.916 16.1667 276.949 16.5018 276.885 16.8251C276.82 17.1485 276.662 17.4454 276.429 17.6785C276.195 17.9116 275.898 18.0703 275.575 18.1346C275.252 18.1989 274.917 18.1659 274.612 18.0398C274.308 17.9137 274.047 17.7 273.864 17.4259C273.681 17.1519 273.583 16.8296 273.583 16.5C273.583 16.058 273.759 15.634 274.071 15.3215C274.384 15.0089 274.808 14.8333 275.25 14.8333ZM275.25 21.5H282.75C282.971 21.5 283.183 21.5878 283.339 21.7441C283.496 21.9004 283.583 22.1123 283.583 22.3333C283.583 22.5543 283.496 22.7663 283.339 22.9226C283.183 23.0789 282.971 23.1667 282.75 23.1667H275.25C275.029 23.1667 274.817 23.0789 274.661 22.9226C274.504 22.7663 274.417 22.5543 274.417 22.3333C274.417 22.1123 274.504 21.9004 274.661 21.7441C274.817 21.5878 275.029 21.5 275.25 21.5ZM283.167 18.1667C282.837 18.1667 282.515 18.0689 282.241 17.8858C281.967 17.7026 281.753 17.4423 281.627 17.1378C281.501 16.8333 281.468 16.4982 281.532 16.1748C281.596 15.8515 281.755 15.5546 281.988 15.3215C282.221 15.0884 282.518 14.9297 282.842 14.8654C283.165 14.801 283.5 14.8341 283.804 14.9602C284.109 15.0863 284.369 15.3 284.552 15.574C284.736 15.8481 284.833 16.1704 284.833 16.5C284.833 16.942 284.658 17.3659 284.345 17.6785C284.033 17.9911 283.609 18.1667 283.167 18.1667Z" fill="white"/>
</g>
<defs>
<clipPath id="clip0">
<rect width="20" height="20" fill="white" transform="translate(7 55)"/>
</clipPath>
<clipPath id="clip1">
<rect width="20" height="20" fill="white" transform="translate(269 55)"/>
</clipPath>
<clipPath id="clip2">
<rect width="20" height="20" fill="white" transform="translate(269 9)"/>
</clipPath>
</defs>
</svg>
